<svg xmlns="http://www.w3.org/2000/svg" viewbox="0 0 804 191" width="804" height="191"><title>unitedconsumers</title><desc>Created with Sketch.</desc><g fill="none"><g fill="#F3661F"><g><g><path id="Shape" d="M58.34 153.93c-1.05-1.26-2.45-2-4.13-2.22-1.7-.2-3.17.16-4.4 1.1-4.1 3.27-9.15 4.92-15 4.92-5.83 0-11.03-2.15-15.46-6.4-4.43-4.23-6.68-9.4-6.68-15.4 0-5.98 2.2-11.28 6.53-15.7 4.58-4.3 9.87-6.46 15.73-6.46 5.87 0 10.88 1.66 14.86 4.9 1.2 1.02 2.7 1.42 4.4 1.2 1.7-.2 3.1-.98 4.12-2.34 1.03-1.33 1.43-2.85 1.23-4.48-.22-1.6-.97-2.96-2.26-4.05-6.32-4.9-13.7-7.4-21.95-7.4-9.46.06-17.7 3.46-24.52 10.1-6.8 6.63-10.3 14.73-10.36 24.05.07 9.37 3.56 17.5 10.37 24.14 6.8 6.62 15.06 9.98 24.5 9.98 8.26 0 15.64-2.48 21.95-7.4 1.28-.98 2.03-2.33 2.25-4 .2-1.65-.2-3.16-1.2-4.55M330 109c0-1.67-.58-3.12-1.74-4.28-1.15-1.18-2.58-1.78-4.25-1.78-1.64 0-3.08.6-4.26 1.76-1.2 1.17-1.8 2.62-1.8 4.3v34.24c0 4.1-1.44 7.6-4.26 10.47-2.83 2.88-6.3 4.33-10.33 4.33s-7.5-1.46-10.33-4.35c-2.82-2.9-4.25-6.4-4.25-10.44l-.02-34.23c0-1.7-.6-3.13-1.8-4.3-1.18-1.17-2.62-1.76-4.27-1.76-1.67 0-3.1.6-4.25 1.78-1.16 1.17-1.74 2.62-1.74 4.28v34.24c0 7.44 2.6 13.87 7.78 19.12 5.18 5.24 11.52 7.9 18.87 7.9 7.34 0 13.7-2.67 18.87-7.96 5.18-5.26 7.8-11.68 7.8-19.05V109M193.64 109.16c-5.18-5.24-11.53-7.9-18.87-7.9-7.35 0-13.7 2.67-18.88 7.95-5.18 5.3-7.8 11.7-7.8 19.08v34.24c0 1.7.6 3.14 1.75 4.3 1.16 1.18 2.6 1.78 4.25 1.78s3.1-.6 4.28-1.76c1.2-1.17 1.8-2.62 1.8-4.32v-34.24c0-4.08 1.43-7.6 4.26-10.47 2.82-2.86 6.3-4.3 10.33-4.3 4.02 0 7.5 1.45 10.32 4.35 2.82 2.9 4.25 6.4 4.25 10.43v34.24c0 1.7.6 3.14 1.8 4.32 1.2 1.17 2.64 1.76 4.3 1.76 1.64 0 3.07-.6 4.24-1.78 1.14-1.17 1.72-2.62 1.72-4.3v-34.24c0-7.45-2.62-13.88-7.78-19.12M430.27 109.22c-5.18-5.24-11.53-7.9-18.88-7.9s-13.7 2.67-18.88 7.94c-.7.7-1.36 1.46-1.97 2.23-.64-.8-1.32-1.58-2.02-2.3-5.18-5.23-11.53-7.9-18.88-7.9-7.34 0-13.7 2.7-18.86 7.96-5.18 5.28-7.8 11.7-7.8 19.06v34.2c0 1.68.58 3.13 1.74 4.3 1.16 1.17 2.6 1.76 4.25 1.76 1.66 0 3.1-.6 4.28-1.75 1.18-1.17 1.78-2.6 1.78-4.3v-34.2c0-4.08 1.44-7.6 4.26-10.47 2.84-2.87 6.3-4.33 10.33-4.33 4.02 0 7.5 1.47 10.32 4.36 2.84 2.9 4.28 6.4 4.28 10.42v34.2c0 1.7.6 3.15 1.8 4.3 1.18 1.18 2.62 1.77 4.27 1.77.04 0 .07 0 .1 0 .06-.02.1-.02.2 0 .03 0 .07 0 .1 0 1.65 0 3.1-.6 4.3-1.77 1.18-1.17 1.8-2.62 1.8-4.3v-34.2c0-4.1 1.43-7.62 4.25-10.47 2.82-2.87 6.3-4.33 10.32-4.33 4.02 0 7.5 1.47 10.32 4.36 2.83 2.9 4.26 6.4 4.26 10.4v34.22c0 1.7.6 3.14 1.8 4.3 1.2 1.18 2.64 1.77 4.3 1.77 1.63 0 3.07-.6 4.23-1.78 1.17-1.16 1.75-2.6 1.75-4.3v-34.2c0-7.46-2.62-13.9-7.8-19.1M34.6 189.7c-12.8 0-25.15-5.4-33.86-14.8-1.04-1.13-.97-2.9.15-3.93 1.12-1.03 2.88-.97 3.92.16 7.66 8.26 18.52 13 29.78 13 7.68 0 15.16-2.15 21.62-6.22 1.3-.82 3-.43 3.84.86.8 1.3.44 3.02-.87 3.84-7.36 4.64-15.87 7.1-24.6 7.1M259.17 137.05c-3.33-2.9-8.37-5.12-15.84-6.96-6.5-1.57-10.23-2.88-12.44-4.4-2.1-1.4-2.93-3.05-2.93-5.7v-.18c0-2.07.95-3.94 2.67-5.3 1.87-1.44 4.5-2.2 7.65-2.2 4.97 0 9.7 1.57 14.87 4.96 1.03.62 2.04.9 3.2.9 1.54 0 3-.58 4.1-1.66 1.08-1.08 1.68-2.54 1.68-4.1 0-2.5-1.4-4.18-2.7-4.95-6.2-4.18-13.06-6.22-20.98-6.22-6.4 0-12.2 1.94-16.3 5.45-2.05 1.75-3.64 3.84-4.74 6.2-1.13 2.44-1.7 5.12-1.7 7.97v.18c0 6 1.84 10.3 5.8 13.5 3.35 2.7 8.22 4.7 16.3 6.68 12.35 2.88 14.52 5.45 14.52 9.8v.18c0 2.33-1.04 4.3-3 5.74-2 1.48-4.87 2.26-8.26 2.26-6.64 0-12.4-2.15-18.14-6.75-1-.76-2.17-1.12-3.6-1.12-1.54 0-3 .6-4.1 1.67-1.08 1.08-1.7 2.53-1.7 4.1 0 1.88.9 3.66 2.4 4.74 3.67 2.76 7.64 4.87 11.82 6.3 4.18 1.4 8.56 2.12 13.03 2.12 6.96 0 12.87-1.85 17.1-5.34 4.38-3.6 6.68-8.73 6.68-14.84v-.2c0-5.46-1.77-9.66-5.4-12.83M609.13 137.05c-3.34-2.9-8.37-5.12-15.84-6.96-6.52-1.57-10.24-2.88-12.45-4.4-2.08-1.4-2.93-3.05-2.93-5.7v-.18c0-2.07.95-3.94 2.68-5.3 1.86-1.44 4.5-2.2 7.64-2.2 5 0 9.72 1.57 14.88 4.96 1.03.62 2.04.9 3.2.9 1.55 0 3-.58 4.1-1.66 1.08-1.08 1.7-2.54 1.7-4.1 0-2.5-1.4-4.18-2.7-4.95-6.2-4.18-13.08-6.2-21-6.2-6.4 0-12.2 1.92-16.3 5.43-2.05 1.75-3.64 3.84-4.74 6.2-1.13 2.44-1.7 5.12-1.7 7.97v.18c0 6 1.85 10.3 5.8 13.5 3.36 2.7 8.23 4.7 16.3 6.68 12.35 2.88 14.52 5.45 14.52 9.8v.18c0 2.33-1.03 4.3-3 5.74-2 1.48-4.86 2.26-8.25 2.26-6.64 0-12.4-2.15-18.14-6.76-.98-.75-2.15-1.12-3.58-1.12-1.55 0-3 .6-4.1 1.67-1.1 1.08-1.7 2.53-1.7 4.1 0 1.88.9 3.65 2.4 4.73 3.66 2.76 7.64 4.88 11.82 6.3 4.17 1.4 8.56 2.12 13.03 2.12 6.95 0 12.86-1.84 17.1-5.33 4.36-3.6 6.68-8.73 6.68-14.85v-.2c0-5.45-1.78-9.65-5.42-12.82"/><path id="Shape" d="M123.68 135.94c0 12.83-8.8 23.2-21.4 23.2-12.6 0-21.57-10.56-21.57-23.4v-.18c0-12.82 8.8-23.3 21.4-23.3 12.6 0 21.58 10.67 21.58 23.5v.18zm-21.4-34.33c-19.48 0-33.26 15.57-33.26 34.15v.2c0 18.57 13.6 33.94 33.1 33.94 19.48 0 33.26-15.57 33.26-34.15v-.18c0-18.58-13.6-33.96-33.1-33.96zM550.27 48.52h-34.4v-.9c0-12.62 6.33-19.95 17.15-19.95 10.93 0 17.25 7.33 17.25 19.95v.9zm-17.25-26.04c-14.3 0-23 9.35-23 24.8v9.36c0 15.55 8.8 24.9 23.45 24.9 9.7 0 17.02-4.28 20.85-12.17.23-.45.34-1.12.34-1.57 0-1.7-1.25-2.82-2.93-2.82-1.35 0-2.14.67-2.6 1.57-2.92 6.2-8.44 9.82-15.66 9.82-11.16 0-17.58-7.45-17.6-19.96v-2.8h37.33c1.8 0 2.82-1.14 2.82-3.05v-3.27c0-15.45-8.57-24.8-23-24.8zM371.56 23.47c-1.76 0-2.74 1.12-2.74 3.13v30.48c0 12.1-6.16 19.28-16.73 19.28-10.68 0-16.85-7.18-16.85-19.28V26.6c0-2-1.1-3.13-2.86-3.13-1.76 0-2.86 1.12-2.86 3.13v30.7c0 15.14 8.47 24.2 22.55 24.2 13.96 0 22.43-9.06 22.43-24.2V26.6c0-2-1.1-3.13-2.97-3.13M411.23 21.8c-14.1 0-22.56 9.06-22.56 24.07v30.8c0 2.02 1.1 3.13 2.87 3.13 1.75 0 2.85-1.12 2.85-3.13V46.2c0-12.2 6.17-19.26 16.83-19.26 10.56 0 16.72 7.06 16.72 19.27v30.47c0 2.02 1 3.13 2.74 3.13 1.87 0 2.97-1.12 2.97-3.13v-30.8c0-15-8.47-24.07-22.44-24.07M451.02 3.67c-2.1 0-3.4 1.3-3.4 3.5v2.55c0 2.1 1.3 3.4 3.4 3.4 2.1 0 3.42-1.3 3.42-3.4V7.18c0-2.2-1.33-3.5-3.42-3.5M451.02 23.47c-1.76 0-2.86 1.1-2.86 3.08v50.17c0 1.98 1.1 3.1 2.85 3.1 1.78 0 2.88-1.12 2.88-3.1V26.55c0-2-1.1-3.08-2.87-3.08M499.33 69.46c-1.13 0-1.9.56-2.35 1.36-1.9 3.5-4.93 5.44-9.3 5.44-6.48 0-10.18-3.98-10.18-11.1v-36.6h20.7c1.7 0 2.8-.9 2.8-2.5 0-1.7-1.1-2.6-2.8-2.6h-20.7V11.32c0-1.92-1.13-3.06-2.92-3.06-1.78 0-2.9 1.14-2.9 3.06v12.12h-6.5c-1.67 0-2.8.9-2.8 2.6 0 1.6 1.13 2.5 2.8 2.5h6.5v36.6c0 10.3 5.82 16.32 15.9 16.32 6.5 0 11.53-2.84 14.2-7.48.24-.47.35-1.03.35-1.6 0-1.93-1.12-2.94-2.8-2.94"/><path d="M608.46 56.13c0 12.63-6.4 20.14-17.38 20.14-11 0-17.27-7.5-17.27-20.14v-9.1c0-12.52 6.38-19.92 17.28-19.92.52 0 1.04 0 1.54.03 10.05.68 15.84 8.07 15.84 20.1v8.9zM611.32.48c-1.76 0-2.86 1.14-2.86 3.18V29c-4-4.63-9.93-7.18-17.4-7.18h-.2c-.66 0-1.3.03-1.94.08-.12 0-.24 0-.36.02-12.8.77-20.48 10.05-20.48 24.76v9.68c0 15.7 8.6 25.15 23 25.15 14.42 0 23.1-9.44 23.1-25.14V3.66c0-2.04-1.1-3.18-2.86-3.18zM460.3 129.23c.4-11.6 6.1-17.95 16.2-17.95 10.16 0 15.9 6.36 16.3 17.95h-32.5zm36.13-20.25c-4.76-5.15-11.65-7.87-19.93-7.87-16.73 0-27.12 11.15-27.12 29.07v10.1c0 8.83 2.54 16.2 7.35 21.3 4.84 5.15 11.84 7.87 20.25 7.87 10.22 0 18.32-4.17 23.13-11.83.56-.85.9-1.87.9-2.96 0-3.02-2.46-5.46-5.48-5.46-1.96 0-3.7 1.04-4.65 2.6-3 4.86-7.85 7.5-13.9 7.5-10.76 0-16.7-6.84-16.7-19.26v-.75h38c3.2 0 5.33-2.24 5.33-5.57v-3.53c0-8.78-2.48-16.1-7.18-21.2zM556.97 104.8c0-.02-.02-.02-.04-.03-.02 0-.04-.02-.06-.04-4.6-2.48-11.02-3.8-16.65-3.8-15.3 0-24.54 9.88-24.54 26.32v35.05c0 4.05 2.4 6.45 6.03 6.45 3.65 0 6.04-2.4 6.04-6.45v-33.6c0-10.6 4.27-16.74 13-16.74 3.93 0 7.57 1.52 10.32 2.74 1.08.52 1.96.9 3.1.9 3.2 0 5.77-2.58 5.77-5.77 0-2.16-1.2-4.05-2.96-5.04M800.43 113.46l-.06-.08c-2.28-2.73-5.27-4.34-8.9-4.8-3.64-.46-6.83.33-9.5 2.37-8.8 7.03-19.68 10.6-32.27 10.6-12.54 0-23.73-4.64-33.28-13.8-9.53-9.14-14.35-20.32-14.35-33.22 0-12.93 4.73-24.35 14.03-33.9 9.88-9.25 21.28-13.93 33.9-13.93 12.63 0 23.4 3.57 31.96 10.6 2.63 2.16 5.84 3.03 9.5 2.58 3.66-.46 6.64-2.16 8.85-5.07 2.22-2.88 3.1-6.13 2.65-9.65-.45-3.5-2.07-6.4-4.85-8.72C784.54 5.83 768.65.48 750.9.48c-20.38.13-38.1 7.45-52.77 21.77-14.65 14.32-22.16 31.77-22.3 51.9.14 20.23 7.65 37.74 22.3 52.06 14.66 14.32 32.4 21.58 52.77 21.58 17.76 0 33.64-5.37 47.2-15.95 2.76-2.14 4.4-5.04 4.85-8.63.45-3.58-.4-6.85-2.52-9.74M748.5 190.08c-26.86 0-52.75-11.32-71.02-31.03-2.2-2.36-2.04-6.05.32-8.24 2.36-2.18 6.05-2.04 8.24.33 16.06 17.34 38.83 27.3 62.46 27.3 16.1 0 31.8-4.53 45.36-13.1 2.72-1.7 6.3-.9 8.04 1.83 1.72 2.72.9 6.32-1.82 8.04-15.43 9.74-33.25 14.88-51.58 14.88"/></g></g></g></g></svg>