<?xml version="1.0" encoding="utf-8"?>
<!-- Generator: Adobe Illustrator 21.0.0, SVG Export Plug-In . SVG Version: 6.00 Build 0)  -->
<svg version="1.1"
	 id="svg15405" inkscape:version="0.91 r13725" sodipodi:docname="fumarate.svg" xmlns:cc="http://creativecommons.org/ns#" xmlns:dc="http://purl.org/dc/elements/1.1/" xmlns:inkscape="http://www.inkscape.org/namespaces/inkscape" xmlns:rdf="http://www.w3.org/1999/02/22-rdf-syntax-ns#" xmlns:sodipodi="http://sodipodi.sourceforge.net/DTD/sodipodi-0.dtd" xmlns:svg="http://www.w3.org/2000/svg"
	 xmlns="http://www.w3.org/2000/svg" xmlns:xlink="http://www.w3.org/1999/xlink" x="0px" y="0px" viewBox="0 0 195.8 200"
	 style="enable-background:new 0 0 195.8 200;" xml:space="preserve">
<style type="text/css">
	.st0{fill:#FFFFFF;stroke:#1FBDBE;stroke-width:1.7515;stroke-linecap:round;stroke-linejoin:round;}
	.st1{fill:#231F20;stroke:#DB4444;stroke-width:9.6277;stroke-opacity:0;}
	.st2{fill:#231F20;stroke:#DB4444;stroke-width:10.1344;stroke-opacity:0;}
</style>
<sodipodi:namedview  bordercolor="#666666" borderopacity="1.0" fit-margin-bottom="0" fit-margin-left="0" fit-margin-right="0" fit-margin-top="0" id="base" inkscape:current-layer="layer1" inkscape:cx="-416.14197" inkscape:cy="86.88338" inkscape:document-units="px" inkscape:pageopacity="0.0" inkscape:pageshadow="2" inkscape:window-height="775" inkscape:window-maximized="1" inkscape:window-width="1440" inkscape:window-x="0" inkscape:window-y="1" inkscape:zoom="0.35" pagecolor="#ffffff" showgrid="false">
	</sodipodi:namedview>
<g id="layer1" transform="translate(-118.28483,-359.76454)" inkscape:groupmode="layer" inkscape:label="Layer 1">
	<g id="g9558" transform="matrix(1.1233312,0.67997708,-0.66913968,1.1054277,715.13196,136.20599)">
		
			<path id="path9406-9-9-2-5-3-7" inkscape:flatsided="true" inkscape:randomized="0" inkscape:rounded="0" inkscape:transform-center-x="17.000017" inkscape:transform-center-y="-13.000018" sodipodi:arg1="0.91148626" sodipodi:arg2="1.5398048" sodipodi:cx="342.31921" sodipodi:cy="253.74945" sodipodi:r1="17.55109" sodipodi:r2="4.9821787" sodipodi:sides="5" sodipodi:type="star" class="st0" d="
			M-132.1,379.6l-15.1,93l-93.1,14.4l-42.5-84.1l66.9-66.4L-132.1,379.6z"/>
		<g id="g9121" transform="matrix(0.617555,-0.42981584,0.3982783,0.65081731,-256.55311,436.52112)">
			<path id="polygon3" inkscape:connector-curvature="0" class="st1" d="M120.1,16.8v1.5L94,33.3v-1.5
				C94,31.9,120.1,16.8,120.1,16.8z"/>
			<path id="polygon5" inkscape:connector-curvature="0" class="st1" d="M67.9,18.3v-1.5L94,31.9v1.5C94,33.3,67.9,18.3,67.9,18.3z"
				/>
			<path id="polygon7" inkscape:connector-curvature="0" class="st1" d="M67.6,23.3l0.6-1.1L92.1,36l-0.6,1.1
				C91.4,37.1,67.6,23.3,67.6,23.3z"/>
			<g id="g9" transform="matrix(0.95,0,0,0.95,5.526775,2.923325)">
				<path id="path11" inkscape:connector-curvature="0" class="st2" d="M141.5,32.1c0-2.3,0.6-4.1,1.8-5.4c1.2-1.3,2.8-1.9,4.7-1.9
					c1.3,0,2.4,0.3,3.4,0.9c1,0.6,1.8,1.5,2.3,2.5c0.5,1.1,0.8,2.3,0.8,3.7c0,1.4-0.3,2.6-0.8,3.7c-0.6,1.1-1.4,1.9-2.4,2.5
					c-1,0.6-2.1,0.8-3.3,0.8c-1.3,0-2.5-0.3-3.5-0.9c-1-0.6-1.8-1.5-2.3-2.6C141.8,34.4,141.5,33.3,141.5,32.1L141.5,32.1z
					 M143.4,32.1c0,1.7,0.4,3,1.3,3.9c0.9,1,2,1.4,3.4,1.4c1.4,0,2.5-0.5,3.4-1.4s1.3-2.3,1.3-4.1c0-1.1-0.2-2.1-0.6-2.9
					c-0.4-0.8-0.9-1.5-1.7-1.9c-0.7-0.5-1.5-0.7-2.5-0.7c-1.3,0-2.4,0.4-3.3,1.3C143.9,28.6,143.4,30,143.4,32.1z"/>
				<path id="path13" inkscape:connector-curvature="0" class="st2" d="M157.1,38.8V25h1.8l0,5.7l7.1,0V25h1.8l0,13.8H166v-6.5
					l-7.1,0v6.5H157.1z"/>
			</g>
			<path id="polygon15" inkscape:connector-curvature="0" class="st1" d="M139.7,28.1l-0.6,1.1l-18.9-10.9v-1.5L139.7,28.1
				L139.7,28.1z"/>
			<g id="g17" transform="matrix(0.95,0,0,0.95,5.526775,2.923325)">
				<path id="path19" inkscape:connector-curvature="0" class="st2" d="M114-15.5c0-2.3,0.6-4.1,1.8-5.4c1.2-1.3,2.8-1.9,4.7-1.9
					c1.3,0,2.4,0.3,3.4,0.9c1,0.6,1.8,1.5,2.3,2.5c0.5,1.1,0.8,2.3,0.8,3.7c0,1.4-0.3,2.6-0.8,3.7c-0.6,1.1-1.4,1.9-2.4,2.5
					c-1,0.6-2.1,0.8-3.3,0.8c-1.3,0-2.5-0.3-3.5-0.9s-1.8-1.5-2.3-2.6C114.3-13.1,114-14.3,114-15.5L114-15.5z M115.9-15.5
					c0,1.7,0.4,3,1.3,3.9c0.9,1,2,1.4,3.4,1.4c1.4,0,2.5-0.5,3.4-1.4c0.9-1,1.3-2.3,1.3-4.1c0-1.1-0.2-2.1-0.6-2.9
					c-0.4-0.8-0.9-1.5-1.7-1.9c-0.7-0.5-1.5-0.7-2.5-0.7c-1.3,0-2.4,0.4-3.3,1.3C116.4-19,115.9-17.5,115.9-15.5z"/>
			</g>
			<path id="rect21" inkscape:connector-curvature="0" class="st1" d="M117.2-3.5l1.3,0l0,22.3l-1.3,0
				C117.2,18.8,117.2-3.5,117.2-3.5z"/>
			<path id="rect23" inkscape:connector-curvature="0" class="st1" d="M121.7-3.5l1.3,0l0,22.3h-1.3C121.7,18.8,121.7-3.5,121.7-3.5
				z"/>
			<path id="polygon25" inkscape:connector-curvature="0" class="st1" d="M41.8,33.3l0-1.5l26.1-15.1v1.5L41.8,33.3z"/>
			<g id="g27" transform="matrix(0.95,0,0,0.95,5.526775,2.923325)">
				<path id="path29" inkscape:connector-curvature="0" class="st2" d="M-9,22.9l0-13.8h1.8l0,5.7l7.1,0l0-5.7l1.8,0l0,13.8h-1.8
					l0-6.5l-7.1,0l0,6.5L-9,22.9C-9,22.9-9,22.9-9,22.9z"/>
				<path id="path31" inkscape:connector-curvature="0" class="st2" d="M4.2,16.2c0-2.3,0.6-4.1,1.8-5.4c1.2-1.3,2.8-1.9,4.7-1.9
					c1.3,0,2.4,0.3,3.4,0.9c1,0.6,1.8,1.5,2.3,2.5c0.5,1.1,0.8,2.3,0.8,3.7c0,1.4-0.3,2.6-0.8,3.7s-1.4,1.9-2.4,2.5
					c-1,0.6-2.1,0.8-3.3,0.8c-1.3,0-2.5-0.3-3.5-0.9c-1-0.6-1.8-1.5-2.3-2.6C4.5,18.6,4.2,17.4,4.2,16.2z M6.1,16.3
					c0,1.7,0.4,3,1.3,3.9s2,1.4,3.4,1.4c1.4,0,2.5-0.5,3.4-1.4c0.9-1,1.3-2.3,1.3-4.1c0-1.1-0.2-2.1-0.6-2.9
					c-0.4-0.8-0.9-1.5-1.7-1.9c-0.7-0.5-1.5-0.7-2.5-0.7c-1.3,0-2.4,0.4-3.3,1.3S6.1,14.2,6.1,16.3z"/>
			</g>
			<path id="polygon33" inkscape:connector-curvature="0" class="st1" d="M22.9,22.4l0.6-1.1l18.3,10.6v1.5L22.9,22.4z"/>
			<g id="g35" transform="matrix(0.95,0,0,0.95,5.526775,2.923325)">
				<path id="path37" inkscape:connector-curvature="0" class="st2" d="M31.6,63.8c0-2.3,0.6-4.1,1.8-5.4c1.2-1.3,2.8-1.9,4.7-1.9
					c1.3,0,2.4,0.3,3.4,0.9c1,0.6,1.8,1.5,2.3,2.5c0.5,1.1,0.8,2.3,0.8,3.7c0,1.4-0.3,2.6-0.8,3.7c-0.6,1.1-1.4,1.9-2.4,2.5
					c-1,0.6-2.1,0.8-3.3,0.8c-1.3,0-2.5-0.3-3.5-0.9c-1-0.6-1.8-1.5-2.3-2.6C31.9,66.2,31.6,65,31.6,63.8z M33.5,63.9
					c0,1.7,0.4,3,1.3,3.9c0.9,1,2,1.4,3.4,1.4c1.4,0,2.5-0.5,3.4-1.4c0.9-1,1.3-2.3,1.3-4.1c0-1.1-0.2-2.1-0.6-2.9
					c-0.4-0.8-0.9-1.5-1.7-1.9c-0.7-0.5-1.5-0.7-2.5-0.7c-1.3,0-2.4,0.4-3.3,1.3C33.9,60.3,33.5,61.8,33.5,63.9z"/>
			</g>
			<path id="rect39" inkscape:connector-curvature="0" class="st1" d="M43.4,31.3l1.3,0l0,23.6h-1.3C43.4,54.9,43.4,31.3,43.4,31.3z
				"/>
			<path id="rect41" inkscape:connector-curvature="0" class="st1" d="M38.9,31.3l1.3,0l0,23.6h-1.3L38.9,31.3z"/>
		</g>
	</g>
</g>
</svg>
