<?xml version="1.0" encoding="utf-8"?>
<!-- Generator: Adobe Illustrator 21.0.0, SVG Export Plug-In . SVG Version: 6.00 Build 0)  -->
<svg version="1.1" id="Checkin" xmlns="http://www.w3.org/2000/svg" xmlns:xlink="http://www.w3.org/1999/xlink" x="0px" y="0px"
	 viewBox="0 0 139 139" style="enable-background:new 0 0 139 139;" xml:space="preserve">
<style type="text/css">
	.st0{fill:#FFFFFF;}
</style>
<path class="st0" d="M69.9,6.8L69.9,6.8c-0.1,0-0.3,0-0.4,0s-0.3,0-0.4,0v0C42.3,7.2,20.7,29,20.7,55.9c0,36.2,42.5,70.6,48.8,75.5
	c6.2-4.9,48.8-39.3,48.8-75.5C118.3,29,96.7,7.2,69.9,6.8z M69.9,77c-14,0-25.4-11.4-25.4-25.4c0-14,11.4-25.4,25.4-25.4
	s25.4,11.4,25.4,25.4C95.3,65.7,83.9,77,69.9,77z"/>
</svg>
