<?xml version="1.0" encoding="utf-8"?>
<!-- Generator: Adobe Illustrator 21.0.0, SVG Export Plug-In . SVG Version: 6.00 Build 0)  -->
<svg version="1.1" id="Mail" xmlns="http://www.w3.org/2000/svg" xmlns:xlink="http://www.w3.org/1999/xlink" x="0px" y="0px"
	 viewBox="0 0 139 139" style="enable-background:new 0 0 139 139;" xml:space="preserve">
<style type="text/css">
	.st0{fill:#FFFFFF;}
</style>
<path class="st0" d="M69.5,64.5l46.4-28.9c-0.5-0.1-1-0.1-1.5-0.1H24.6c-0.5,0-1,0.1-1.5,0.1L69.5,64.5z"/>
<path class="st0" d="M72.4,75.7c-0.1,0-0.1,0.1-0.2,0.1c-0.1,0-0.1,0.1-0.2,0.1c-0.4,0.2-0.7,0.3-1.1,0.4c0,0-0.1,0-0.1,0
	c-0.4,0.1-0.8,0.2-1.3,0.2c0,0,0,0,0,0s0,0,0,0c-0.4,0-0.9-0.1-1.3-0.2c0,0-0.1,0-0.1,0c-0.4-0.1-0.8-0.3-1.1-0.4
	c-0.1,0-0.1-0.1-0.2-0.1c-0.1,0-0.1-0.1-0.2-0.1L15,43.6c-0.1,0.5-0.2,1.1-0.2,1.7v51.6c0,5.4,4.4,9.8,9.8,9.8h89.7
	c5.4,0,9.8-4.4,9.8-9.8V45.2c0-0.6-0.1-1.1-0.2-1.7L72.4,75.7z"/>
</svg>
