<?xml version="1.0" encoding="utf-8"?>
<!-- Generator: Adobe Illustrator 21.0.0, SVG Export Plug-In . SVG Version: 6.00 Build 0)  -->
<svg version="1.1" id="Layer_1" xmlns="http://www.w3.org/2000/svg" xmlns:xlink="http://www.w3.org/1999/xlink" x="0px" y="0px"
	 viewBox="0 0 367.1 343.5" style="enable-background:new 0 0 367.1 343.5;" xml:space="preserve">
<style type="text/css">
	.st0{fill:none;}
	.st1{fill:#88C540;}
	.st2{fill:#38A849;}
	.st3{fill:#E7F2DE;}
	.st4{fill:#E7F2DE;stroke:#000000;stroke-width:6;stroke-miterlimit:10;}
	.st5{fill:#E7F2DE;stroke:#000000;stroke-width:5;stroke-miterlimit:10;}
	.st6{fill:#009444;stroke:#000000;stroke-miterlimit:10;}
	.st7{fill:#34BFB2;}
</style>
<g>
	<path class="st0" d="M931.8,209.1l0.1-0.1C931.9,209,931.9,209,931.8,209.1z"/>
	<path class="st1" d="M694.1,107.6c2.8,0,5,2.2,5,5v114.5c0,7.6,9.2,11.4,14.5,6l2.5-2.5c-1.3,0.1-2.1-1.1-2.1-3.4V106.9
		c0-5-2.2-16.1-7.2-16.1l-58.4,0.1l-13.1,16.9L694.1,107.6z"/>
	<path class="st1" d="M994.5,412.3V244.1c0-5.6-3.2-13.5-7.2-17.5l-28-28.2c-6.4-6.4-16.8-6.4-23.2,0l-33.2,33.5
		c-1.1,1.1-2.8,1.1-3.9,0l-33.2-33.5c-6.4-6.4-16.8-6.4-23.2,0l-33.2,33.5c-1.1,1.1-2.8,1.1-3.9,0l-33.2-33.5
		c-6.4-6.4-16.8-6.4-23.2,0l-3,3c1.7-0.5,3.6-0.1,5,1.2l41.5,41.5c1.9,1.9,5.1,1.9,7,0l41.5-41.5c1.9-1.9,5.1-1.9,7,0l41.5,41.5
		c1.9,1.9,5.1,1.9,7,0l35-35c0-0.1,0.1-0.1,0.1-0.1l6.4-6.4c1.9-1.9,5.1-1.9,7,0l43.6,43.6c0.9,0.9,1.5,2.2,1.5,3.5v184.6h4.1
		C996,434.3,994.5,413.8,994.5,412.3z"/>
	<path class="st2" d="M696.8,237.1c0-0.1-0.1-0.3-0.2-0.6l0,0L696.8,237.1z"/>
	<path class="st2" d="M989,246.2l-43.6-43.6c-1.9-1.9-5.1-1.9-7,0L932,209l-0.1,0.1l-35,35c-1.9,1.9-5.1,1.9-7,0l-41.5-41.5
		c-1.9-1.9-5.1-1.9-7,0l-41.5,41.5c-1.9,1.9-5.1,1.9-7,0l-41.5-41.5c-1.3-1.3-3.3-1.7-5-1.2c-0.8,0.2-1.5,0.6-2.1,1.2l-28,28
		l-2.5,2.5c-5.4,5.4-14.5,1.6-14.5-6V112.6c0-2.8-2.2-5-5-5l-59,0.2c-0.9,0.9-8.2,13.3-8.2,15.8v310.6h349.8h13.6V249.7
		C990.4,248.4,989.9,247.1,989,246.2z M986.2,421c0,4.9-4.1,8.9-9.1,8.9H640.4c-5,0-9.1-4-9.1-8.9V127.9c0-4.9,4.1-8.9,9.1-8.9h43.5
		c4.8,0,8.8,3.8,8.9,8.7c3,105.7,3,101.2,3,106l0,0c0,0,0.5,1.8,0.8,2.8c3.3,5.2,15.6,5.4,20.6,0.6l25.4-24.7c3.6-3.5,9.4-3.5,13,0
		l34.4,33.5c3.6,3.5,9.4,3.5,13,0l34.4-33.5c3.6-3.5,9.4-3.5,13,0l34.4,33.5c3.6,3.5,9.4,3.5,13,0l34.4-33.5c3.6-3.5,9.4-3.5,13,0
		l38.3,37.3c1.7,1.7,2.7,3.9,2.7,6.3V421L986.2,421z"/>
	<path class="st2" d="M696.6,236.5l-0.8-2.8C695.8,234.8,696.1,235.7,696.6,236.5z"/>
	<path class="st3" d="M696.6,236.5L696.6,236.5c-0.3-1-0.8-2.8-0.8-2.8L696.6,236.5z"/>
	<path class="st3" d="M945.3,212.4c-3.6-3.5-9.4-3.5-13,0l-34.4,33.5c-3.6,3.5-9.4,3.5-13,0l-34.4-33.5c-3.6-3.5-9.4-3.5-13,0
		l-34.4,33.5c-3.6,3.5-9.4,3.5-13,0l-34.4-33.5c-3.6-3.5-9.4-3.5-13,0l-25.4,24.7c-5,4.8-17.3,4.7-20.6-0.6c0.1,0.3,0.1,0.5,0.2,0.6
		l-0.2-0.6c-0.5-0.8-0.8-1.8-0.8-2.8l0,0c0-4.8,0-0.3-3-106c-0.1-4.8-4.1-8.7-8.9-8.7h-43.5c-5,0-9.1,4-9.1,8.9V421
		c0,4.9,4.1,8.9,9.1,8.9h336.6c5,0,9.1-4,9.1-8.9V255.9c0-2.4-1-4.6-2.7-6.3L945.3,212.4z"/>
</g>
<text transform="matrix(1 0 0 1 725.4752 326.4097)" style="fill:#EE322C; font-family:'Ravie'; font-size:48px;">IGEM</text>
<text transform="matrix(1 0 0 1 725.4752 326.4097)" style="fill:none;stroke:#000000;stroke-miterlimit:10; font-family:'Ravie'; font-size:48px;">IGEM</text>
<text transform="matrix(0.7096 0 0 1 686.6852 373.7431)" style="font-family:'Ravie'; font-size:36px;">AMSTERDAM</text>
<text transform="matrix(0.7096 0 0 1 686.6852 373.7431)" style="fill:none;stroke:#ED1C24;stroke-width:0.25;stroke-miterlimit:10; font-family:'Ravie'; font-size:36px;">AMSTERDAM</text>
<path class="st4" d="M955.4,277.4v-5.8l-6.5-1.6l0,0c-0.4-1.6-1-3-1.8-4.4l3.5-5.7l-4.1-4.1l-5.7,3.5c-1.4-0.8-2.8-1.4-4.4-1.8l0,0
	l-1.5-6.5h-5.8l-1.5,6.5l0,0c-1.6,0.4-3,1-4.4,1.8l-5.7-3.5l-4.1,4.1l3.5,5.7c-0.8,1.3-1.4,2.8-1.8,4.3l-6.5,1.5v5.8l6.5,1.6l0,0
	c0.4,1.6,1,3,1.8,4.4l-3.5,5.7l4.1,4.1l5.7-3.5c1.4,0.8,2.8,1.4,4.4,1.8l0,0l1.5,6.5h5.8l1.5-6.5l0,0c1.6-0.4,3-1,4.4-1.8l5.7,3.5
	l4.1-4.1l-3.5-5.7c0.8-1.3,1.4-2.8,1.8-4.3L955.4,277.4z"/>
<circle class="st5" cx="932" cy="271" r="7"/>
<text transform="matrix(1 0 0 1 737.4505 414.6672)" style="font-family:'Ravie'; font-size:28px;">2017</text>
<text transform="matrix(1 0 0 1 737.4505 414.6672)" style="fill:none;stroke:#ED1C24;stroke-width:0.25;stroke-miterlimit:10; font-family:'Ravie'; font-size:28px;">2017</text>
<path class="st6" d="M982.4,372.1c0,5.3-8.7-3.6-19.2-4.5c-9.9-0.9-17.9,7-17.9,2.2s7.7-8.3,17.6-8
	C973.4,362.3,982.4,366.9,982.4,372.1z"/>
<path class="st6" d="M678.8,299c8.3-1.5,10.8,15.6,3.9,15.6c-6.6,0-30.5-4.4-34.6-11.3c-9.5-15.6,12.6-34.4,11.8-15.4
	C659.6,295,659.7,302.5,678.8,299z"/>
<path class="st6" d="M682.7,395.5c0,6-5.8,9.7-12.4,8.5c-6.3-1.1-16-13.5-11-11.6c8.8,3.4,16.4,1.8,5.3-7.6
	C661.3,382,682.7,389.5,682.7,395.5z"/>
<path class="st6" d="M850,251.5c35.7,8.6,5.4,29.6,6,5.1c0.1-5.8-9.4-1.5-15.5,1.3c-8.1,3.7-3.8-20.8,1.1-10.1
	C842.8,250.6,841.8,249.6,850,251.5z"/>
<g>
	<path class="st7" d="M63.4,118l0.1,0.1C63.4,118,63.4,118,63.4,118z"/>
	<path class="st7" d="M368.3,32.9L368,343.5l-349.8-0.3l-13.3,0v0.1l-4.1,0c-1.7,0-0.2-20.5-0.2-22L0.8,153c0-5.6,3.2-13.5,7.2-17.5
		l28-28.2c6.4-6.4,16.8-6.4,23.2,0l33.2,33.5c1.1,1.1,2.8,1.1,3.9,0l33.2-33.5c6.4-6.4,16.8-6.4,23.2,0l33.2,33.5
		c1.1,1.1,2.8,1.1,3.9,0l33.2-33.5c6.4-6.4,16.8-6.4,23.2,0l3,3c-0.5-0.1-0.9-0.2-1.4-0.2c0.4,0,0.7,0.1,1.1,0.2
		c0.8,0.2,1.5,0.6,2.1,1.2l28,28h0.2c1.3,0.1,2.1-1.1,2.1-3.4l0.1-120.3c0-5,2.2-16.1,7.2-16.1L347,0.2l13.1,16.9
		C361,18,368.3,30.4,368.3,32.9z"/>
</g>
<image style="overflow:visible;" width="104" height="139" xlink:href="C:\Users\mohammad aljohmani\Downloads\Capture1.PNG"  transform="matrix(0.75 0 0 0.75 -257.8548 38.32)">
</image>
</svg>
