<?xml version="1.0" encoding="utf-8"?>
<!-- Generator: Adobe Illustrator 21.0.0, SVG Export Plug-In . SVG Version: 6.00 Build 0)  -->
<svg version="1.1" id="Layer_1" xmlns="http://www.w3.org/2000/svg" xmlns:xlink="http://www.w3.org/1999/xlink" x="0px" y="0px"
	 viewBox="0 0 367.4 343.5" style="enable-background:new 0 0 367.4 343.5;" xml:space="preserve">
<style type="text/css">
	.st0{fill:none;}
	.st1{fill:#88C540;}
	.st2{fill:#38A849;}
	.st3{fill:#E7F2DE;}
	.st4{fill:#EE322C;stroke:#000000;stroke-miterlimit:10;}
	.st5{font-family:'Ravie';}
	.st6{font-size:48px;}
	.st7{stroke:#ED1C24;stroke-width:0.25;stroke-miterlimit:10;}
	.st8{font-size:36px;}
	.st9{fill:#E7F2DE;stroke:#000000;stroke-width:6;stroke-miterlimit:10;}
	.st10{fill:#E7F2DE;stroke:#000000;stroke-width:5;stroke-miterlimit:10;}
	.st11{font-size:28px;}
	.st12{fill:#009444;stroke:#000000;stroke-miterlimit:10;}
</style>
<g>
	<path class="st0" d="M304.7,118.3l0.1-0.1C304.8,118.2,304.8,118.2,304.7,118.3z"/>
	<path class="st1" d="M67,16.8c2.8,0,5,2.2,5,5v114.5c0,7.6,9.2,11.4,14.5,6l2.5-2.5c-1.3,0.1-2.1-1.1-2.1-3.4V16.1
		c0-5-2.2-16.1-7.2-16.1L21.3,0.1L8.2,17L67,16.8z"/>
	<path class="st1" d="M367.4,321.5V153.3c0-5.6-3.2-13.5-7.2-17.5l-28-28.2c-6.4-6.4-16.8-6.4-23.2,0l-33.2,33.5
		c-1.1,1.1-2.8,1.1-3.9,0l-33.2-33.5c-6.4-6.4-16.8-6.4-23.2,0l-33.2,33.5c-1.1,1.1-2.8,1.1-3.9,0l-33.2-33.5
		c-6.4-6.4-16.8-6.4-23.2,0l-3,3c1.7-0.5,3.6-0.1,5,1.2l41.5,41.5c1.9,1.9,5.1,1.9,7,0l41.5-41.5c1.9-1.9,5.1-1.9,7,0l41.5,41.5
		c1.9,1.9,5.1,1.9,7,0l35-35c0-0.1,0.1-0.1,0.1-0.1l6.4-6.4c1.9-1.9,5.1-1.9,7,0l43.6,43.6c0.9,0.9,1.5,2.2,1.5,3.5v184.6h4.1
		C368.9,343.5,367.4,323,367.4,321.5z"/>
	<path class="st2" d="M69.7,146.3c0-0.1-0.1-0.3-0.2-0.6c0,0,0,0,0,0L69.7,146.3z"/>
	<path class="st2" d="M361.9,155.4l-43.6-43.6c-1.9-1.9-5.1-1.9-7,0l-6.4,6.4l-0.1,0.1l-35,35c-1.9,1.9-5.1,1.9-7,0l-41.5-41.5
		c-1.9-1.9-5.1-1.9-7,0l-41.5,41.5c-1.9,1.9-5.1,1.9-7,0l-41.5-41.5c-1.3-1.3-3.3-1.7-5-1.2c-0.8,0.2-1.5,0.6-2.1,1.2l-28,28
		l-2.5,2.5c-5.4,5.4-14.5,1.6-14.5-6V21.8c0-2.8-2.2-5-5-5L8.2,17C7.3,17.9,0,30.3,0,32.8v310.6h349.8h13.6V158.9
		C363.3,157.6,362.8,156.3,361.9,155.4z M359.1,330.2c0,4.9-4.1,8.9-9.1,8.9H13.3c-5,0-9.1-4-9.1-8.9V37.1c0-4.9,4.1-8.9,9.1-8.9
		l43.5,0c4.8,0,8.8,3.8,8.9,8.7c3,105.7,3,101.2,3,106c0,0,0,0,0,0c0,0,0.5,1.8,0.8,2.8c3.3,5.2,15.6,5.4,20.6,0.6l25.4-24.7
		c3.6-3.5,9.4-3.5,13,0l34.4,33.5c3.6,3.5,9.4,3.5,13,0l34.4-33.5c3.6-3.5,9.4-3.5,13,0l34.4,33.5c3.6,3.5,9.4,3.5,13,0l34.4-33.5
		c3.6-3.5,9.4-3.5,13,0l38.3,37.3c1.7,1.7,2.7,3.9,2.7,6.3V330.2z"/>
	<path class="st2" d="M69.5,145.7l-0.8-2.8C68.7,144,69,144.9,69.5,145.7z"/>
	<path class="st3" d="M69.5,145.7C69.5,145.7,69.5,145.7,69.5,145.7c-0.3-1-0.8-2.8-0.8-2.8L69.5,145.7z"/>
	<path class="st3" d="M318.2,121.6c-3.6-3.5-9.4-3.5-13,0l-34.4,33.5c-3.6,3.5-9.4,3.5-13,0l-34.4-33.5c-3.6-3.5-9.4-3.5-13,0
		l-34.4,33.5c-3.6,3.5-9.4,3.5-13,0l-34.4-33.5c-3.6-3.5-9.4-3.5-13,0l-25.4,24.7c-5,4.8-17.3,4.7-20.6-0.6c0.1,0.3,0.1,0.5,0.2,0.6
		l-0.2-0.6c-0.5-0.8-0.8-1.8-0.8-2.8c0,0,0,0,0,0c0-4.8,0-0.3-3-106c-0.1-4.8-4.1-8.7-8.9-8.7l-43.5,0c-5,0-9.1,4-9.1,8.9v293.1
		c0,4.9,4.1,8.9,9.1,8.9H350c5,0,9.1-4,9.1-8.9V165.1c0-2.4-1-4.6-2.7-6.3L318.2,121.6z"/>
</g>
<text transform="matrix(1 0 0 1 98.33 235.6497)" class="st4 st5 st6">IGEM</text>
<text transform="matrix(0.7096 0 0 1 59.5399 282.9834)" class="st7 st5 st8">AMSTERDAM</text>
<path class="st9" d="M328.3,186.6l0-5.8l-6.5-1.6l0,0c-0.4-1.6-1-3-1.8-4.4l3.5-5.7l-4.1-4.1l-5.7,3.5c-1.4-0.8-2.8-1.4-4.4-1.8l0,0
	c0,0-1.5-6.5-1.5-6.5h-5.8l-1.5,6.5v0c-1.6,0.4-3,1-4.4,1.8l-5.7-3.5l-4.1,4.1l3.5,5.7c-0.8,1.3-1.4,2.8-1.8,4.3l-6.5,1.5l0,5.8
	l6.5,1.6v0c0.4,1.6,1,3,1.8,4.4l-3.5,5.7l4.1,4.1l5.7-3.5c1.4,0.8,2.8,1.4,4.4,1.8l0,0c0,0,1.5,6.5,1.5,6.5h5.8l1.5-6.5v0
	c1.6-0.4,3-1,4.4-1.8l5.7,3.5l4.1-4.1l-3.5-5.7c0.8-1.3,1.4-2.8,1.8-4.3L328.3,186.6z"/>
<circle class="st10" cx="304.9" cy="180.2" r="7"/>
<text transform="matrix(1 0 0 1 110.3053 323.9072)" class="st7 st5 st11">2017</text>
<path class="st12" d="M355.3,281.3c0,5.3-8.7-3.6-19.2-4.5c-9.9-0.9-17.9,7-17.9,2.2s7.7-8.3,17.6-8
	C346.3,271.5,355.3,276.1,355.3,281.3z"/>
<path class="st12" d="M51.7,208.2c8.3-1.5,10.8,15.6,3.9,15.6c-6.6,0-30.5-4.4-34.6-11.3c-9.5-15.6,12.6-34.4,11.8-15.4
	C32.5,204.2,32.6,211.7,51.7,208.2z"/>
<path class="st12" d="M55.6,304.7c0,6-5.8,9.7-12.4,8.5c-6.3-1.1-16-13.5-11-11.6c8.8,3.4,16.4,1.8,5.3-7.6
	C34.2,291.2,55.6,298.7,55.6,304.7z"/>
<path class="st12" d="M222.9,160.7c35.7,8.6,5.4,29.6,6,5.1c0.1-5.8-9.4-1.5-15.5,1.3c-8.1,3.7-3.8-20.8,1.1-10.1
	C215.7,159.8,214.7,158.8,222.9,160.7z"/>
</svg>
