<?xml version="1.0" encoding="utf-8"?>
<!-- Generator: Adobe Illustrator 21.0.0, SVG Export Plug-In . SVG Version: 6.00 Build 0)  -->
<svg version="1.1"
	 id="svg14668" inkscape:version="0.91 r13725" sodipodi:docname="sensor.svg" xmlns:cc="http://creativecommons.org/ns#" xmlns:dc="http://purl.org/dc/elements/1.1/" xmlns:inkscape="http://www.inkscape.org/namespaces/inkscape" xmlns:rdf="http://www.w3.org/1999/02/22-rdf-syntax-ns#" xmlns:sodipodi="http://sodipodi.sourceforge.net/DTD/sodipodi-0.dtd" xmlns:svg="http://www.w3.org/2000/svg"
	 xmlns="http://www.w3.org/2000/svg" xmlns:xlink="http://www.w3.org/1999/xlink" x="0px" y="0px" viewBox="0 0 184.5 190.3"
	 style="enable-background:new 0 0 184.5 190.3;" xml:space="preserve">
<style type="text/css">
	.st0{fill:none;}
	.st1{fill:#FF7C25;stroke:#000000;stroke-width:3.1687;stroke-linecap:round;stroke-linejoin:round;stroke-opacity:0;}
	.st2{fill:#FFF047;}
	.st3{fill:#FF7C25;}
	.st4{fill:#1FBDBE;}
	.st5{fill:#FFFFFF;stroke:#1FBDBE;stroke-width:1.7515;stroke-linecap:round;stroke-linejoin:round;}
	.st6{fill:#231F20;stroke:#DB4444;stroke-width:9.6277;stroke-opacity:0;}
	.st7{fill:#231F20;stroke:#DB4444;stroke-width:10.1344;stroke-opacity:0;}
</style>
<sodipodi:namedview  bordercolor="#666666" borderopacity="1.0" fit-margin-bottom="0" fit-margin-left="0" fit-margin-right="0" fit-margin-top="0" id="base" inkscape:current-layer="layer1" inkscape:cx="-351.2823" inkscape:cy="-179.13943" inkscape:document-units="px" inkscape:pageopacity="0.0" inkscape:pageshadow="2" inkscape:window-height="775" inkscape:window-maximized="1" inkscape:window-width="1440" inkscape:window-x="0" inkscape:window-y="1" inkscape:zoom="0.35" pagecolor="#ffffff" showgrid="false">
	</sodipodi:namedview>
<g id="layer1" transform="translate(-53.425156,-65.787352)" inkscape:groupmode="layer" inkscape:label="Layer 1">
	
		<ellipse id="path6849-2-0-4" transform="matrix(0.7727 -0.6347 0.6347 0.7727 -73.0645 126.5346)" class="st0" cx="140.2" cy="165.3" rx="115" ry="115"/>
	<path id="rect6894-5-4-4-41-1" class="st1" d="M154.5,102.8l9.8-4.4c4.8-2.1,10.6-0.1,13.1,4.5l29.6,56.5
		c2.4,4.6,0.5,10.1-4.3,12.3l-9.8,4.4c-4.8,2.1-10.6,0.1-13.1-4.5l-29.6-56.5C147.8,110.4,149.8,104.9,154.5,102.8z"/>
	<path id="rect6894-5-4-4-4-9-6" class="st1" d="M65.3,155.5l9.8-4.4c4.8-2.1,10.6-0.1,13.1,4.5l29.6,56.5
		c2.4,4.6,0.5,10.1-4.3,12.3l-9.8,4.4c-4.8,2.1-10.6,0.1-13.1-4.5L61,167.7C58.6,163.1,60.5,157.6,65.3,155.5z"/>
	
		<path id="path9840-7-5" inkscape:flatsided="false" inkscape:randomized="0" inkscape:rounded="0.02" inkscape:transform-center-x="5.7192945" inkscape:transform-center-y="-4.0645856" sodipodi:arg1="0.84089667" sodipodi:arg2="1.126496" sodipodi:cx="48" sodipodi:cy="508.56216" sodipodi:r1="23.45549" sodipodi:r2="50.990196" sodipodi:sides="11" sodipodi:type="star" class="st2" d="
		M145.9,108c-0.2-0.4-22,0-22.1-0.4c-0.1-0.4,19.6-8,19.6-8.4c0-0.4-19-10.7-18.8-11.1c0.1-0.4,21.7,3,22,2.7
		c0.3-0.3-9.9-18-9.6-18.3c0.3-0.2,17,13.1,17.4,12.9c0.4-0.1,2.3-19.6,2.7-19.7c0.4,0,6.8,19,7.2,19.1c0.4,0.1,13.7-15,14.1-14.8
		c0.4,0.2-5.5,18.9-5.2,19.2c0.3,0.3,20.8-5.6,21.1-5.2c0.2,0.4-16.1,12.8-16,13.2c0.1,0.4,21.3,5.6,21.3,6c0,0.4-21.6,2.6-21.7,3
		c-0.1,0.4,15.1,15,14.8,15.3c-0.3,0.3-20.2-8.4-20.5-8.1c-0.3,0.2,4,19.6,3.6,19.8s-12.4-16.7-12.8-16.7c-0.4,0-8.3,18-8.8,18
		c-0.4-0.1-0.7-19.7-1.1-19.9c-0.4-0.2-18,10.7-18.3,10.4S146.1,108.4,145.9,108L145.9,108z"/>
	
		<rect id="rect10051-0" x="175.9" y="163.1" transform="matrix(0.8932 -0.4496 0.4496 0.8932 -59.3164 109.6905)" class="st3" width="50.9" height="33.2"/>
	
		<path id="path9406-9-9-2-64-3-4" inkscape:flatsided="true" inkscape:randomized="0" inkscape:rounded="0" sodipodi:arg1="0.91148626" sodipodi:arg2="1.5398048" sodipodi:cx="342.31921" sodipodi:cy="253.74945" sodipodi:r1="17.55109" sodipodi:r2="4.9821787" sodipodi:sides="5" sodipodi:type="star" class="st4" d="
		M206,222.9l-26.1-22.9l15.8-30l35.9,4.4l6.4,32.7L206,222.9z"/>
	
		<rect id="rect10051-9-4" x="81.3" y="205.9" transform="matrix(0.8932 -0.4496 0.4496 0.8932 -88.6378 71.7505)" class="st3" width="50.9" height="33.2"/>
	<path id="path10121-8-0" class="st3" d="M65.5,141.1c9.5-4.6,19.9-1.7,23.3,6.5s-1.5,18.4-11,23c-9.5,4.6-19.9,1.7-23.3-6.5
		C51.1,155.9,56,145.6,65.5,141.1z"/>
	<g id="g9558-6-8" transform="matrix(0.32289807,-0.11378436,0.11197088,0.31775177,293.53785,94.747347)">
		
			<path id="path9406-9-9-2-5-3-7-8-8" inkscape:flatsided="true" inkscape:randomized="0" inkscape:rounded="0" inkscape:transform-center-x="17.000017" inkscape:transform-center-y="-13.000018" sodipodi:arg1="0.91148626" sodipodi:arg2="1.5398048" sodipodi:cx="342.31921" sodipodi:cy="253.74945" sodipodi:r1="17.55109" sodipodi:r2="4.9821787" sodipodi:sides="5" sodipodi:type="star" class="st5" d="
			M-257.3,168.1l-15.1,93l-93.1,14.4l-42.5-84.1l66.9-66.4L-257.3,168.1z"/>
		<g id="g9121-9-95" transform="matrix(0.617555,-0.42981584,0.3982783,0.65081731,-256.55311,436.52112)">
			<path id="polygon3-4-8" inkscape:connector-curvature="0" class="st6" d="M125-305v1.5l-26.1,15.1v-1.5C98.9-290,125-305,125-305
				z"/>
			<path id="polygon5-6-49" inkscape:connector-curvature="0" class="st6" d="M72.8-303.5v-1.5L98.9-290v1.5
				C98.9-288.5,72.8-303.5,72.8-303.5z"/>
			<path id="polygon7-3-2" inkscape:connector-curvature="0" class="st6" d="M72.5-298.5l0.6-1.1l23.8,13.8l-0.6,1.1
				C96.3-284.8,72.5-298.5,72.5-298.5z"/>
			<g id="g9-9-7" transform="matrix(0.95,0,0,0.95,5.526775,2.923325)">
				<path id="path11-6-3" inkscape:connector-curvature="0" class="st7" d="M146.7-306.7c0-2.3,0.6-4.1,1.8-5.4
					c1.2-1.3,2.8-1.9,4.7-1.9c1.3,0,2.4,0.3,3.4,0.9c1,0.6,1.8,1.5,2.3,2.5c0.5,1.1,0.8,2.3,0.8,3.7c0,1.4-0.3,2.6-0.8,3.7
					c-0.6,1.1-1.4,1.9-2.4,2.5c-1,0.6-2.1,0.8-3.3,0.8c-1.3,0-2.5-0.3-3.5-0.9c-1-0.6-1.8-1.5-2.3-2.6
					C146.9-304.3,146.7-305.5,146.7-306.7z M148.6-306.6c0,1.7,0.4,3,1.3,3.9c0.9,1,2,1.4,3.4,1.4c1.4,0,2.5-0.5,3.4-1.4
					s1.3-2.3,1.3-4.1c0-1.1-0.2-2.1-0.6-2.9c-0.4-0.8-0.9-1.5-1.7-1.9c-0.7-0.5-1.5-0.7-2.5-0.7c-1.3,0-2.4,0.4-3.3,1.3
					C149-310.2,148.6-308.7,148.6-306.6z"/>
				<path id="path13-1-2" inkscape:connector-curvature="0" class="st7" d="M162.2-300v-13.8h1.8v5.7h7.1v-5.7h1.8v13.8h-1.8l0-6.5
					h-7.1v6.5H162.2z"/>
			</g>
			<path id="polygon15-7-5" inkscape:connector-curvature="0" class="st6" d="M144.6-293.8l-0.6,1.1L125-303.6v-1.5
				C125-305,144.6-293.8,144.6-293.8z"/>
			<g id="g17-7-78" transform="matrix(0.95,0,0,0.95,5.526775,2.923325)">
				<path id="path19-2-5" inkscape:connector-curvature="0" class="st7" d="M119.2-354.2c0-2.3,0.6-4.1,1.8-5.4
					c1.2-1.3,2.8-1.9,4.7-1.9c1.3,0,2.4,0.3,3.4,0.9c1,0.6,1.8,1.5,2.3,2.5c0.5,1.1,0.8,2.3,0.8,3.7c0,1.4-0.3,2.6-0.8,3.7
					c-0.6,1.1-1.4,1.9-2.4,2.5c-1,0.6-2.1,0.8-3.3,0.8c-1.3,0-2.5-0.3-3.5-0.9c-1-0.6-1.8-1.5-2.3-2.6
					C119.5-351.9,119.2-353,119.2-354.2z M121.1-354.2c0,1.7,0.4,3,1.3,3.9c0.9,1,2,1.4,3.4,1.4c1.4,0,2.5-0.5,3.4-1.4
					c0.9-1,1.3-2.3,1.3-4.1c0-1.1-0.2-2.1-0.6-2.9c-0.4-0.8-0.9-1.5-1.7-1.9c-0.7-0.5-1.5-0.7-2.5-0.7c-1.3,0-2.4,0.4-3.3,1.3
					S121.1-356.3,121.1-354.2z"/>
			</g>
			<path id="rect21-5-6" inkscape:connector-curvature="0" class="st6" d="M122.1-325.3h1.3l0,22.3h-1.3
				C122.1-303,122.1-325.3,122.1-325.3z"/>
			<path id="rect23-6-36" inkscape:connector-curvature="0" class="st6" d="M126.6-325.3h1.3l0,22.3h-1.3
				C126.6-303,126.6-325.3,126.6-325.3z"/>
			<path id="polygon25-6-5" inkscape:connector-curvature="0" class="st6" d="M46.7-288.5v-1.5L72.8-305v1.5L46.7-288.5z"/>
			<g id="g27-8-8" transform="matrix(0.95,0,0,0.95,5.526775,2.923325)">
				<path id="path29-0-9" inkscape:connector-curvature="0" class="st7" d="M-3.9-315.8l0-13.8H-2l0,5.7h7.1l0-5.7h1.8l0,13.8H5.1
					l0-6.5H-2l0,6.5H-3.9C-3.9-315.8-3.9-315.8-3.9-315.8z"/>
				<path id="path31-1-0" inkscape:connector-curvature="0" class="st7" d="M9.4-322.5c0-2.3,0.6-4.1,1.8-5.4
					c1.2-1.3,2.8-1.9,4.7-1.9c1.3,0,2.4,0.3,3.4,0.9c1,0.6,1.8,1.5,2.3,2.5c0.5,1.1,0.8,2.3,0.8,3.7c0,1.4-0.3,2.6-0.8,3.7
					s-1.4,1.9-2.4,2.5s-2.1,0.8-3.3,0.8c-1.3,0-2.5-0.3-3.5-0.9c-1-0.6-1.8-1.5-2.3-2.6S9.4-321.3,9.4-322.5z M11.3-322.5
					c0,1.7,0.4,3,1.3,3.9c0.9,1,2,1.4,3.4,1.4c1.4,0,2.5-0.5,3.4-1.4c0.9-1,1.3-2.3,1.3-4.1c0-1.1-0.2-2.1-0.6-2.9
					c-0.4-0.8-0.9-1.5-1.7-1.9s-1.5-0.7-2.5-0.7c-1.3,0-2.4,0.4-3.3,1.3C11.7-326,11.3-324.6,11.3-322.5z"/>
			</g>
			<path id="polygon33-1-97" inkscape:connector-curvature="0" class="st6" d="M27.8-299.4l0.6-1.1L46.7-290l0,1.5L27.8-299.4z"/>
			<g id="g35-8-5" transform="matrix(0.95,0,0,0.95,5.526775,2.923325)">
				<path id="path37-3-0" inkscape:connector-curvature="0" class="st7" d="M36.8-274.9c0-2.3,0.6-4.1,1.8-5.4
					c1.2-1.3,2.8-1.9,4.7-1.9c1.3,0,2.4,0.3,3.4,0.9c1,0.6,1.8,1.5,2.3,2.5c0.5,1.1,0.8,2.3,0.8,3.7c0,1.4-0.3,2.6-0.8,3.7
					c-0.6,1.1-1.4,1.9-2.4,2.5c-1,0.6-2.1,0.8-3.3,0.8c-1.3,0-2.5-0.3-3.5-0.9c-1-0.6-1.8-1.5-2.3-2.6
					C37-272.6,36.8-273.7,36.8-274.9z M38.6-274.9c0,1.7,0.4,3,1.3,3.9c0.9,1,2,1.4,3.4,1.4c1.4,0,2.5-0.5,3.4-1.4
					c0.9-1,1.3-2.3,1.3-4.1c0-1.1-0.2-2.1-0.6-2.9c-0.4-0.8-0.9-1.5-1.7-1.9c-0.7-0.5-1.5-0.7-2.5-0.7c-1.3,0-2.4,0.4-3.3,1.3
					C39.1-278.4,38.6-277,38.6-274.9z"/>
			</g>
			<path id="rect39-3-9" inkscape:connector-curvature="0" class="st6" d="M48.3-290.5h1.3l0,23.6h-1.3
				C48.3-266.9,48.3-290.5,48.3-290.5z"/>
			<path id="rect41-7-2" inkscape:connector-curvature="0" class="st6" d="M43.8-290.5h1.3l0,23.6h-1.3L43.8-290.5z"/>
		</g>
	</g>
	
		<g id="g9558-6-4-6-4-0-4" transform="matrix(-0.05306932,0.2284644,-0.22482316,-0.05222352,339.91775,360.05316)" inkscape:transform-center-x="-2.284396" inkscape:transform-center-y="4.2018015">
		
			<path id="path9406-9-9-2-5-3-7-8-4-9-9-7-8" inkscape:flatsided="true" inkscape:randomized="0" inkscape:rounded="0" inkscape:transform-center-x="17.000017" inkscape:transform-center-y="-13.000018" sodipodi:arg1="0.91148626" sodipodi:arg2="1.5398048" sodipodi:cx="342.31921" sodipodi:cy="253.74945" sodipodi:r1="17.55109" sodipodi:r2="4.9821787" sodipodi:sides="5" sodipodi:type="star" class="st5" d="
			M-294,736.7l-15.1,93l-93.1,14.4l-42.5-84.1l66.9-66.4L-294,736.7z"/>
		<g id="g9121-9-9-7-3-6-1" transform="matrix(0.617555,-0.42981584,0.3982783,0.65081731,-256.55311,436.52112)">
			<path id="polygon3-4-2-5-2-7-1" inkscape:connector-curvature="0" class="st6" d="M-311.8,280.1v1.5l-26.1,15.1v-1.5
				C-337.9,295.2-311.8,280.1-311.8,280.1z"/>
			<path id="polygon5-6-4-2-4-4-8" inkscape:connector-curvature="0" class="st6" d="M-364,281.6v-1.5l26.1,15.1v1.5
				C-337.9,296.7-364,281.6-364,281.6z"/>
			<path id="polygon7-3-5-3-2-0-8" inkscape:connector-curvature="0" class="st6" d="M-364.3,286.7l0.6-1.1l23.8,13.8l-0.6,1.1
				C-340.5,300.4-364.3,286.7-364.3,286.7z"/>
			<g id="g9-9-2-2-7-1-7" transform="matrix(0.95,0,0,0.95,5.526775,2.923325)">
				<path id="path11-6-1-5-8-0-36" inkscape:connector-curvature="0" class="st7" d="M-313.1,309.3c0-2.3,0.6-4.1,1.8-5.4
					c1.2-1.3,2.8-1.9,4.7-1.9c1.3,0,2.4,0.3,3.4,0.9c1,0.6,1.8,1.5,2.3,2.5c0.5,1.1,0.8,2.3,0.8,3.7c0,1.4-0.3,2.6-0.8,3.7
					c-0.6,1.1-1.4,1.9-2.4,2.5c-1,0.6-2.1,0.8-3.3,0.8c-1.3,0-2.5-0.3-3.5-0.9c-1-0.6-1.8-1.5-2.3-2.6
					C-312.8,311.6-313.1,310.5-313.1,309.3z M-311.2,309.3c0,1.7,0.4,3,1.3,3.9c0.9,1,2,1.4,3.4,1.4c1.4,0,2.5-0.5,3.4-1.4
					s1.3-2.3,1.3-4.1c0-1.1-0.2-2.1-0.6-2.9c-0.4-0.8-0.9-1.5-1.7-1.9s-1.5-0.7-2.5-0.7c-1.3,0-2.4,0.4-3.3,1.3
					C-310.8,305.8-311.2,307.2-311.2,309.3z"/>
				<path id="path13-1-9-1-7-6-4" inkscape:connector-curvature="0" class="st7" d="M-297.5,316l0-13.8h1.8l0,5.7h7.1l0-5.7h1.8
					l0,13.8h-1.8v-6.5l-7.1,0v6.5H-297.5z"/>
			</g>
			<path id="polygon15-7-6-5-1-4-08" inkscape:connector-curvature="0" class="st6" d="M-292.2,291.4l-0.6,1.1l-18.9-10.9v-1.5
				C-311.8,280.1-292.2,291.4-292.2,291.4z"/>
			<g id="g17-7-7-7-1-8-1" transform="matrix(0.95,0,0,0.95,5.526775,2.923325)">
				<path id="path19-2-7-5-9-3-82" inkscape:connector-curvature="0" class="st7" d="M-340.6,261.7c0-2.3,0.6-4.1,1.8-5.4
					c1.2-1.3,2.8-1.9,4.7-1.9c1.3,0,2.4,0.3,3.4,0.9c1,0.6,1.8,1.5,2.3,2.5c0.5,1.1,0.8,2.3,0.8,3.7c0,1.4-0.3,2.6-0.8,3.7
					c-0.6,1.1-1.4,1.9-2.4,2.5c-1,0.6-2.1,0.8-3.3,0.8c-1.3,0-2.5-0.3-3.5-0.9c-1-0.6-1.8-1.5-2.3-2.6
					C-340.3,264.1-340.6,262.9-340.6,261.7z M-338.7,261.8c0,1.7,0.4,3,1.3,3.9c0.9,1,2,1.4,3.4,1.4c1.4,0,2.5-0.5,3.4-1.4
					c0.9-1,1.3-2.3,1.3-4.1c0-1.1-0.2-2.1-0.6-2.9c-0.4-0.8-0.9-1.5-1.7-1.9c-0.7-0.5-1.5-0.7-2.5-0.7c-1.3,0-2.4,0.4-3.3,1.3
					S-338.7,259.7-338.7,261.8z"/>
			</g>
			<path id="rect21-5-7-4-1-9-3" inkscape:connector-curvature="0" class="st6" d="M-314.7,259.9h1.3l0,22.3h-1.3
				C-314.7,282.2-314.7,259.9-314.7,259.9z"/>
			<path id="rect23-6-3-4-5-8-8" inkscape:connector-curvature="0" class="st6" d="M-310.2,259.9h1.3l0,22.3h-1.3
				C-310.2,282.2-310.2,259.9-310.2,259.9z"/>
			<path id="polygon25-6-7-4-30-4-2" inkscape:connector-curvature="0" class="st6" d="M-390.1,296.7v-1.5l26.1-15.1v1.5
				L-390.1,296.7z"/>
			<g id="g27-8-3-1-8-7-0" transform="matrix(0.95,0,0,0.95,5.526775,2.923325)">
				<path id="path29-0-7-2-3-8-6" inkscape:connector-curvature="0" class="st7" d="M-463.6,300.1l0-13.8h1.8v5.7h7.1v-5.7h1.8
					l0,13.8h-1.8l0-6.5h-7.1l0,6.5H-463.6C-463.6,300.1-463.6,300.1-463.6,300.1z"/>
				<path id="path31-1-5-9-6-9-4" inkscape:connector-curvature="0" class="st7" d="M-450.4,293.4c0-2.3,0.6-4.1,1.8-5.4
					c1.2-1.3,2.8-1.9,4.7-1.9c1.3,0,2.4,0.3,3.4,0.9c1,0.6,1.8,1.5,2.3,2.5c0.5,1.1,0.8,2.3,0.8,3.7c0,1.4-0.3,2.6-0.8,3.7
					s-1.4,1.9-2.4,2.5c-1,0.6-2.1,0.8-3.3,0.8c-1.3,0-2.5-0.3-3.5-0.9c-1-0.6-1.8-1.5-2.3-2.6C-450.1,295.8-450.4,294.7-450.4,293.4
					z M-448.5,293.5c0,1.7,0.4,3,1.3,3.9s2,1.4,3.4,1.4c1.4,0,2.5-0.5,3.4-1.4c0.9-1,1.3-2.3,1.3-4.1c0-1.1-0.2-2.1-0.6-2.9
					c-0.4-0.8-0.9-1.5-1.7-1.9s-1.5-0.7-2.5-0.7c-1.3,0-2.4,0.4-3.3,1.3C-448.1,289.9-448.5,291.4-448.5,293.5z"/>
			</g>
			<path id="polygon33-1-9-0-6-1-0" inkscape:connector-curvature="0" class="st6" d="M-409,285.7l0.6-1.1l18.3,10.6v1.5L-409,285.7
				z"/>
			<g id="g35-8-6-5-8-7-3" transform="matrix(0.95,0,0,0.95,5.526775,2.923325)">
				<path id="path37-3-3-8-6-0-8" inkscape:connector-curvature="0" class="st7" d="M-423,341c0-2.3,0.6-4.1,1.8-5.4
					c1.2-1.3,2.8-1.9,4.7-1.9c1.3,0,2.4,0.3,3.4,0.9c1,0.6,1.8,1.5,2.3,2.5c0.5,1.1,0.8,2.3,0.8,3.7c0,1.4-0.3,2.6-0.8,3.7
					c-0.6,1.1-1.4,1.9-2.4,2.5c-1,0.6-2.1,0.8-3.3,0.8c-1.3,0-2.5-0.3-3.5-0.9c-1-0.6-1.8-1.5-2.3-2.6
					C-422.8,343.4-423,342.3-423,341z M-421.1,341.1c0,1.7,0.4,3,1.3,3.9c0.9,1,2,1.4,3.4,1.4c1.4,0,2.5-0.5,3.4-1.4
					c0.9-1,1.3-2.3,1.3-4.1c0-1.1-0.2-2.1-0.6-2.9c-0.4-0.8-0.9-1.5-1.7-1.9c-0.7-0.5-1.5-0.7-2.5-0.7c-1.3,0-2.4,0.4-3.3,1.3
					C-420.7,337.5-421.1,339-421.1,341.1z"/>
			</g>
			<path id="rect39-3-8-5-0-0-3" inkscape:connector-curvature="0" class="st6" d="M-388.5,294.6h1.3l0,23.6h-1.3
				C-388.5,318.2-388.5,294.6-388.5,294.6z"/>
			<path id="rect41-7-1-4-2-5-4" inkscape:connector-curvature="0" class="st6" d="M-393,294.6h1.3l0,23.6h-1.3L-393,294.6z"/>
		</g>
	</g>
</g>
</svg>
