<?xml version="1.0" encoding="utf-8"?>
<!-- Generator: Adobe Illustrator 21.0.0, SVG Export Plug-In . SVG Version: 6.00 Build 0)  -->
<svg version="1.1"
	 id="svg17646" inkscape:version="0.91 r13725" sodipodi:docname="transporter.svg" xmlns:cc="http://creativecommons.org/ns#" xmlns:dc="http://purl.org/dc/elements/1.1/" xmlns:inkscape="http://www.inkscape.org/namespaces/inkscape" xmlns:rdf="http://www.w3.org/1999/02/22-rdf-syntax-ns#" xmlns:sodipodi="http://sodipodi.sourceforge.net/DTD/sodipodi-0.dtd" xmlns:svg="http://www.w3.org/2000/svg"
	 xmlns="http://www.w3.org/2000/svg" xmlns:xlink="http://www.w3.org/1999/xlink" x="0px" y="0px" viewBox="0 0 171.3 191.5"
	 style="enable-background:new 0 0 171.3 191.5;" xml:space="preserve">
<style type="text/css">
	.st0{fill:none;}
	.st1{fill:#FF7C25;stroke:#000000;stroke-width:4.3814;stroke-linecap:round;stroke-linejoin:round;stroke-opacity:0;}
	.st2{fill:none;stroke:#000000;stroke-width:10.5;}
	.st3{stroke:#000000;stroke-width:0.955;stroke-linecap:round;stroke-linejoin:round;stroke-opacity:0;}
	.st4{fill:#FFFFFF;stroke:#1FBDBE;stroke-width:1.7515;stroke-linecap:round;stroke-linejoin:round;}
	.st5{fill:#231F20;stroke:#DB4444;stroke-width:9.6277;stroke-opacity:0;}
	.st6{fill:#231F20;stroke:#DB4444;stroke-width:10.1344;stroke-opacity:0;}
</style>
<sodipodi:namedview  bordercolor="#666666" borderopacity="1.0" fit-margin-bottom="0" fit-margin-left="0" fit-margin-right="0" fit-margin-top="0" id="base" inkscape:current-layer="layer1" inkscape:cx="425.86231" inkscape:cy="103.71944" inkscape:document-units="px" inkscape:pageopacity="0.0" inkscape:pageshadow="2" inkscape:window-height="775" inkscape:window-maximized="1" inkscape:window-width="1440" inkscape:window-x="0" inkscape:window-y="1" inkscape:zoom="0.35" pagecolor="#ffffff" showgrid="false">
	</sodipodi:namedview>
<g id="layer1" transform="translate(723.71945,-348.64272)" inkscape:groupmode="layer" inkscape:label="Layer 1">
	
		<ellipse id="path6849-2" transform="matrix(0.6195 -0.785 0.785 0.6195 -595.8763 -332.5873)" class="st0" cx="-641" cy="448.3" rx="115" ry="115"/>
	<path id="rect6894-5-5" class="st1" d="M-691.5,465.9l-15.6-12.3c-5.3-4.2-6.2-11.8-2-17.1l50.7-64.3c4.2-5.3,11.8-6.2,17.1-2
		l15.6,12.3c5.3,4.2,6.2,11.8,2,17.1l-50.7,64.3C-678.6,469.1-686.3,470-691.5,465.9z"/>
	<path id="path6966-7" inkscape:connector-curvature="0" class="st2" d="M-602,391.5c-75.8,96.2-75.2,96.7-75.2,96.7l-1.7-0.2"/>
	
		<path id="path6968-2" inkscape:flatsided="true" inkscape:randomized="0" inkscape:rounded="0" inkscape:transform-center-y="-2.5533811" sodipodi:arg1="2.6179939" sodipodi:arg2="3.6651914" sodipodi:cx="35.369877" sodipodi:cy="20.967867" sodipodi:r1="3.7316358" sodipodi:r2="1.865818" sodipodi:sides="3" sodipodi:type="star" class="st3" d="
		M-665,492.4l-20,6.5l1.7-20.9L-665,492.4z"/>
	<path id="rect6894-5-4-8" class="st1" d="M-637.8,508.3l-15.6-12.3c-5.3-4.2-6.2-11.8-2-17.1l50.7-64.3c4.2-5.3,11.8-6.2,17.1-2
		l15.6,12.3c5.3,4.2,6.2,11.8,2,17.1l-50.7,64.3C-624.9,511.6-632.6,512.5-637.8,508.3z"/>
	
		<g id="g9558-6-4-6-7-5-5" transform="matrix(0.15325523,-0.04827757,0.04750813,0.15081267,-655.31544,517.58601)" inkscape:transform-center-x="-3.6950286" inkscape:transform-center-y="-1.8729571">
		
			<path id="path9406-9-9-2-5-3-7-8-4-9-3-8-2" inkscape:flatsided="true" inkscape:randomized="0" inkscape:rounded="0" inkscape:transform-center-x="17.000017" inkscape:transform-center-y="-13.000018" sodipodi:arg1="0.91148626" sodipodi:arg2="1.5398048" sodipodi:cx="342.31921" sodipodi:cy="253.74945" sodipodi:r1="17.55109" sodipodi:r2="4.9821787" sodipodi:sides="5" sodipodi:type="star" class="st4" d="
			M-248.7-80.4l-15.1,93L-356.9,27l-42.5-84.1l66.9-66.4L-248.7-80.4z"/>
		<g id="g9121-9-9-7-5-6-2" transform="matrix(0.617555,-0.42981584,0.3982783,0.65081731,-256.55311,436.52112)">
			<path id="polygon3-4-2-5-4-4-3" inkscape:connector-curvature="0" class="st5" d="M307.5-566.4v1.5l-26.1,15.1v-1.5
				C281.3-551.4,307.5-566.4,307.5-566.4z"/>
			<path id="polygon5-6-4-2-7-4-4" inkscape:connector-curvature="0" class="st5" d="M255.2-564.9l0-1.5l26.1,15.1v1.5
				C281.3-549.9,255.2-564.9,255.2-564.9z"/>
			<path id="polygon7-3-5-3-3-1-2" inkscape:connector-curvature="0" class="st5" d="M254.9-559.9l0.6-1.1l23.8,13.8l-0.6,1.1
				C278.7-546.1,254.9-559.9,254.9-559.9z"/>
			<g id="g9-9-2-2-3-0-1" transform="matrix(0.95,0,0,0.95,5.526775,2.923325)">
				<path id="path11-6-1-5-1-6-7" inkscape:connector-curvature="0" class="st6" d="M338.7-581.8c0-2.3,0.6-4.1,1.8-5.4
					c1.2-1.3,2.8-1.9,4.7-1.9c1.3,0,2.4,0.3,3.4,0.9c1,0.6,1.8,1.5,2.3,2.5c0.5,1.1,0.8,2.3,0.8,3.7c0,1.4-0.3,2.6-0.8,3.7
					c-0.6,1.1-1.4,1.9-2.4,2.5c-1,0.6-2.1,0.8-3.3,0.8c-1.3,0-2.5-0.3-3.5-0.9s-1.8-1.5-2.3-2.6C339-579.5,338.7-580.6,338.7-581.8z
					 M340.6-581.8c0,1.7,0.4,3,1.3,3.9c0.9,1,2,1.4,3.4,1.4c1.4,0,2.5-0.5,3.4-1.4s1.3-2.3,1.3-4.1c0-1.1-0.2-2.1-0.6-2.9
					c-0.4-0.8-0.9-1.5-1.7-1.9c-0.7-0.5-1.5-0.7-2.5-0.7c-1.3,0-2.4,0.4-3.3,1.3C341.1-585.3,340.6-583.9,340.6-581.8z"/>
				<path id="path13-1-9-1-1-3-2" inkscape:connector-curvature="0" class="st6" d="M354.3-575.1v-13.8l1.8,0v5.7h7.1v-5.7h1.8v13.8
					h-1.8v-6.5h-7.1v6.5H354.3z"/>
			</g>
			<path id="polygon15-7-6-5-6-5-8" inkscape:connector-curvature="0" class="st5" d="M327-555.2l-0.6,1.1L307.5-565v-1.5
				C307.5-566.4,327-555.2,327-555.2z"/>
			<g id="g17-7-7-7-8-1-7" transform="matrix(0.95,0,0,0.95,5.526775,2.923325)">
				<path id="path19-2-7-5-0-0-4" inkscape:connector-curvature="0" class="st6" d="M311.2-629.4c0-2.3,0.6-4.1,1.8-5.4
					c1.2-1.3,2.8-1.9,4.7-1.9c1.3,0,2.4,0.3,3.4,0.9c1,0.6,1.8,1.5,2.3,2.5c0.5,1.1,0.8,2.3,0.8,3.7c0,1.4-0.3,2.6-0.8,3.7
					c-0.6,1.1-1.4,1.9-2.4,2.5s-2.1,0.8-3.3,0.8c-1.3,0-2.5-0.3-3.5-0.9c-1-0.6-1.8-1.5-2.3-2.6C311.5-627,311.2-628.2,311.2-629.4z
					 M313.1-629.4c0,1.7,0.4,3,1.3,3.9s2,1.4,3.4,1.4c1.4,0,2.5-0.5,3.4-1.4c0.9-1,1.3-2.3,1.3-4.1c0-1.1-0.2-2.1-0.6-2.9
					c-0.4-0.8-0.9-1.5-1.7-1.9c-0.7-0.5-1.5-0.7-2.5-0.7c-1.3,0-2.4,0.4-3.3,1.3C313.6-632.9,313.1-631.4,313.1-629.4z"/>
			</g>
			<path id="rect21-5-7-4-0-3-8" inkscape:connector-curvature="0" class="st5" d="M304.5-586.7h1.3l0,22.3h-1.3
				C304.5-564.4,304.5-586.7,304.5-586.7z"/>
			<path id="rect23-6-3-4-4-6-8" inkscape:connector-curvature="0" class="st5" d="M309.1-586.7h1.3l0,22.3h-1.3
				C309.1-564.4,309.1-586.7,309.1-586.7z"/>
			<path id="polygon25-6-7-4-3-3-5" inkscape:connector-curvature="0" class="st5" d="M229.1-549.9v-1.5l26.1-15.1l0,1.5
				L229.1-549.9z"/>
			<g id="g27-8-3-1-6-4-2" transform="matrix(0.95,0,0,0.95,5.526775,2.923325)">
				<path id="path29-0-7-2-4-5-6" inkscape:connector-curvature="0" class="st6" d="M188.2-591l0-13.8h1.8l0,5.7l7.1,0v-5.7h1.8
					l0,13.8h-1.8l0-6.5H190l0,6.5H188.2C188.2-591,188.2-591,188.2-591z"/>
				<path id="path31-1-5-9-5-5-6" inkscape:connector-curvature="0" class="st6" d="M201.4-597.7c0-2.3,0.6-4.1,1.8-5.4
					c1.2-1.3,2.8-1.9,4.7-1.9c1.3,0,2.4,0.3,3.4,0.9c1,0.6,1.8,1.5,2.3,2.5c0.5,1.1,0.8,2.3,0.8,3.7c0,1.4-0.3,2.6-0.8,3.7
					c-0.6,1.1-1.4,1.9-2.4,2.5c-1,0.6-2.1,0.8-3.3,0.8c-1.3,0-2.5-0.3-3.5-0.9c-1-0.6-1.8-1.5-2.3-2.6S201.4-596.5,201.4-597.7z
					 M203.3-597.6c0,1.7,0.4,3,1.3,3.9c0.9,1,2,1.4,3.4,1.4c1.4,0,2.5-0.5,3.4-1.4c0.9-1,1.3-2.3,1.3-4.1c0-1.1-0.2-2.1-0.6-2.9
					s-0.9-1.5-1.7-1.9c-0.7-0.5-1.5-0.7-2.5-0.7c-1.3,0-2.4,0.4-3.3,1.3C203.8-601.2,203.3-599.7,203.3-597.6z"/>
			</g>
			<path id="polygon33-1-9-0-0-1-4" inkscape:connector-curvature="0" class="st5" d="M210.2-560.8l0.6-1.1l18.3,10.6v1.5
				L210.2-560.8z"/>
			<g id="g35-8-6-5-0-1-7" transform="matrix(0.95,0,0,0.95,5.526775,2.923325)">
				<path id="path37-3-3-8-3-6-2" inkscape:connector-curvature="0" class="st6" d="M228.8-550.1c0-2.3,0.6-4.1,1.8-5.4
					c1.2-1.3,2.8-1.9,4.7-1.9c1.3,0,2.4,0.3,3.4,0.9c1,0.6,1.8,1.5,2.3,2.5s0.8,2.3,0.8,3.7c0,1.4-0.3,2.6-0.8,3.7
					c-0.6,1.1-1.4,1.9-2.4,2.5s-2.1,0.8-3.3,0.8c-1.3,0-2.5-0.3-3.5-0.9c-1-0.6-1.8-1.5-2.3-2.6
					C229.1-547.7,228.8-548.9,228.8-550.1z M230.7-550c0,1.7,0.4,3,1.3,3.9s2,1.4,3.4,1.4c1.4,0,2.5-0.5,3.4-1.4
					c0.9-1,1.3-2.3,1.3-4.1c0-1.1-0.2-2.1-0.6-2.9s-0.9-1.5-1.7-1.9c-0.7-0.5-1.5-0.7-2.5-0.7c-1.3,0-2.4,0.4-3.3,1.3
					C231.1-553.6,230.7-552.1,230.7-550z"/>
			</g>
			<path id="rect39-3-8-5-4-4-7" inkscape:connector-curvature="0" class="st5" d="M230.7-551.9h1.3l0,23.6h-1.3
				C230.7-528.3,230.7-551.9,230.7-551.9z"/>
			<path id="rect41-7-1-4-6-2-8" inkscape:connector-curvature="0" class="st5" d="M226.2-551.9h1.3l0,23.6h-1.3L226.2-551.9z"/>
		</g>
	</g>
	
		<g id="g9558-6-4-6-4-42-7" transform="matrix(0.2324648,0.01662782,-0.01636283,0.2287598,-611.4184,457.49671)" inkscape:transform-center-x="-6.1282109" inkscape:transform-center-y="2.4221442">
		
			<path id="path9406-9-9-2-5-3-7-8-4-9-9-2-9" inkscape:flatsided="true" inkscape:randomized="0" inkscape:rounded="0" inkscape:transform-center-x="17.000017" inkscape:transform-center-y="-13.000018" sodipodi:arg1="0.91148626" sodipodi:arg2="1.5398048" sodipodi:cx="342.31921" sodipodi:cy="253.74945" sodipodi:r1="17.55109" sodipodi:r2="4.9821787" sodipodi:sides="5" sodipodi:type="star" class="st4" d="
			M-313.3,158.7l-15.1,93l-93.1,14.4l-42.5-84.1l66.9-66.4L-313.3,158.7z"/>
		<g id="g9121-9-9-7-3-59-5" transform="matrix(0.617555,-0.42981584,0.3982783,0.65081731,-256.55311,436.52112)">
			<path id="polygon3-4-2-5-2-70-6" inkscape:connector-curvature="0" class="st5" d="M67.9-357.2v1.5l-26.1,15.1l0-1.5
				C41.8-342.1,67.9-357.2,67.9-357.2z"/>
			<path id="polygon5-6-4-2-4-5-0" inkscape:connector-curvature="0" class="st5" d="M15.7-355.7l0-1.5l26.1,15.1l0,1.5
				C41.8-340.6,15.7-355.7,15.7-355.7z"/>
			<path id="polygon7-3-5-3-2-9-0" inkscape:connector-curvature="0" class="st5" d="M15.3-350.7l0.6-1.1L39.8-338l-0.6,1.1
				C39.2-336.9,15.3-350.7,15.3-350.7z"/>
			<g id="g9-9-2-2-7-8-9" transform="matrix(0.95,0,0,0.95,5.526775,2.923325)">
				<path id="path11-6-1-5-8-3-0" inkscape:connector-curvature="0" class="st6" d="M86.5-361.6c0-2.3,0.6-4.1,1.8-5.4
					c1.2-1.3,2.8-1.9,4.7-1.9c1.3,0,2.4,0.3,3.4,0.9c1,0.6,1.8,1.5,2.3,2.5c0.5,1.1,0.8,2.3,0.8,3.7c0,1.4-0.3,2.6-0.8,3.7
					c-0.6,1.1-1.4,1.9-2.4,2.5c-1,0.6-2.1,0.8-3.3,0.8c-1.3,0-2.5-0.3-3.5-0.9c-1-0.6-1.8-1.5-2.3-2.6
					C86.8-359.2,86.5-360.4,86.5-361.6z M88.4-361.5c0,1.7,0.4,3,1.3,3.9c0.9,1,2,1.4,3.4,1.4c1.4,0,2.5-0.5,3.4-1.4
					c0.9-1,1.3-2.3,1.3-4.1c0-1.1-0.2-2.1-0.6-2.9c-0.4-0.8-0.9-1.5-1.7-1.9c-0.7-0.5-1.5-0.7-2.5-0.7c-1.3,0-2.4,0.4-3.3,1.3
					C88.9-365.1,88.4-363.6,88.4-361.5z"/>
				<path id="path13-1-9-1-7-66-1" inkscape:connector-curvature="0" class="st6" d="M102.1-354.9l0-13.8h1.8v5.7h7.1l0-5.7h1.8
					l0,13.8H111l0-6.5h-7.1l0,6.5L102.1-354.9z"/>
			</g>
			<path id="polygon15-7-6-5-1-5-1" inkscape:connector-curvature="0" class="st5" d="M87.4-345.9l-0.6,1.1l-18.9-10.9v-1.5
				C67.9-357.2,87.4-345.9,87.4-345.9z"/>
			<g id="g17-7-7-7-1-5-0" transform="matrix(0.95,0,0,0.95,5.526775,2.923325)">
				<path id="path19-2-7-5-9-6-8" inkscape:connector-curvature="0" class="st6" d="M59.1-409.1c0-2.3,0.6-4.1,1.8-5.4
					c1.2-1.3,2.8-1.9,4.7-1.9c1.3,0,2.4,0.3,3.4,0.9c1,0.6,1.8,1.5,2.3,2.5c0.5,1.1,0.8,2.3,0.8,3.7c0,1.4-0.3,2.6-0.8,3.7
					c-0.6,1.1-1.4,1.9-2.4,2.5c-1,0.6-2.1,0.8-3.3,0.8c-1.3,0-2.5-0.3-3.5-0.9c-1-0.6-1.8-1.5-2.3-2.6
					C59.3-406.8,59.1-407.9,59.1-409.1z M60.9-409.1c0,1.7,0.4,3,1.3,3.9c0.9,1,2,1.4,3.4,1.4c1.4,0,2.5-0.5,3.4-1.4
					c0.9-1,1.3-2.3,1.3-4.1c0-1.1-0.2-2.1-0.6-2.9c-0.4-0.8-0.9-1.5-1.7-1.9c-0.7-0.5-1.5-0.7-2.5-0.7c-1.3,0-2.4,0.4-3.3,1.3
					S60.9-411.2,60.9-409.1z"/>
			</g>
			<path id="rect21-5-7-4-1-5-4" inkscape:connector-curvature="0" class="st5" d="M65-377.4h1.3l0,22.3H65
				C65-355.1,65-377.4,65-377.4z"/>
			<path id="rect23-6-3-4-5-07-8" inkscape:connector-curvature="0" class="st5" d="M69.5-377.4h1.3l0,22.3h-1.3
				C69.5-355.1,69.5-377.4,69.5-377.4z"/>
			<path id="polygon25-6-7-4-30-1-4" inkscape:connector-curvature="0" class="st5" d="M-10.4-340.6l0-1.5l26.1-15.1l0,1.5
				L-10.4-340.6z"/>
			<g id="g27-8-3-1-8-12-2" transform="matrix(0.95,0,0,0.95,5.526775,2.923325)">
				<path id="path29-0-7-2-3-9-3" inkscape:connector-curvature="0" class="st6" d="M-64-370.7l0-13.8h1.8l0,5.7h7.1l0-5.7h1.8
					l0,13.8h-1.8l0-6.5h-7.1l0,6.5H-64C-64-370.7-64-370.7-64-370.7z"/>
				<path id="path31-1-5-9-6-00-4" inkscape:connector-curvature="0" class="st6" d="M-50.7-377.4c0-2.3,0.6-4.1,1.8-5.4
					c1.2-1.3,2.8-1.9,4.7-1.9c1.3,0,2.4,0.3,3.4,0.9c1,0.6,1.8,1.5,2.3,2.5s0.8,2.3,0.8,3.7c0,1.4-0.3,2.6-0.8,3.7
					c-0.6,1.1-1.4,1.9-2.4,2.5c-1,0.6-2.1,0.8-3.3,0.8c-1.3,0-2.5-0.3-3.5-0.9c-1-0.6-1.8-1.5-2.3-2.6
					C-50.5-375-50.7-376.2-50.7-377.4z M-48.9-377.4c0,1.7,0.4,3,1.3,3.9c0.9,1,2,1.4,3.4,1.4c1.4,0,2.5-0.5,3.4-1.4
					c0.9-1,1.3-2.3,1.3-4.1c0-1.1-0.2-2.1-0.6-2.9c-0.4-0.8-0.9-1.5-1.7-1.9s-1.5-0.7-2.5-0.7c-1.3,0-2.4,0.4-3.3,1.3
					S-48.9-379.4-48.9-377.4z"/>
			</g>
			<path id="polygon33-1-9-0-6-42-5" inkscape:connector-curvature="0" class="st5" d="M-29.4-351.6l0.6-1.1l18.3,10.6l0,1.5
				L-29.4-351.6z"/>
			<g id="g35-8-6-5-8-72-3" transform="matrix(0.95,0,0,0.95,5.526775,2.923325)">
				<path id="path37-3-3-8-6-00-7" inkscape:connector-curvature="0" class="st6" d="M-23.4-329.8c0-2.3,0.6-4.1,1.8-5.4
					c1.2-1.3,2.8-1.9,4.7-1.9c1.3,0,2.4,0.3,3.4,0.9c1,0.6,1.8,1.5,2.3,2.5s0.8,2.3,0.8,3.7c0,1.4-0.3,2.6-0.8,3.7s-1.4,1.9-2.4,2.5
					c-1,0.6-2.1,0.8-3.3,0.8c-1.3,0-2.5-0.3-3.5-0.9c-1-0.6-1.8-1.5-2.3-2.6C-23.1-327.4-23.4-328.6-23.4-329.8z M-21.5-329.8
					c0,1.7,0.4,3,1.3,3.9c0.9,1,2,1.4,3.4,1.4c1.4,0,2.5-0.5,3.4-1.4c0.9-1,1.3-2.3,1.3-4.1c0-1.1-0.2-2.1-0.6-2.9
					c-0.4-0.8-0.9-1.5-1.7-1.9s-1.5-0.7-2.5-0.7c-1.3,0-2.4,0.4-3.3,1.3C-21-333.3-21.5-331.8-21.5-329.8z"/>
			</g>
			<path id="rect39-3-8-5-0-71-3" inkscape:connector-curvature="0" class="st5" d="M-8.8-342.7h1.3l0,23.6h-1.3
				C-8.8-319.1-8.8-342.7-8.8-342.7z"/>
			<path id="rect41-7-1-4-2-85-4" inkscape:connector-curvature="0" class="st5" d="M-13.3-342.7h1.3l0,23.6h-1.3L-13.3-342.7z"/>
		</g>
	</g>
	
		<g id="g9558-6-4-6-4-0-1-6" transform="matrix(0.14915968,0.11154653,-0.10976872,0.14678239,-553.07298,536.19831)" inkscape:transform-center-x="-0.98853754" inkscape:transform-center-y="1.9738718">
		
			<path id="path9406-9-9-2-5-3-7-8-4-9-9-7-9-4" inkscape:flatsided="true" inkscape:randomized="0" inkscape:rounded="0" inkscape:transform-center-x="17.000017" inkscape:transform-center-y="-13.000018" sodipodi:arg1="0.91148626" sodipodi:arg2="1.5398048" sodipodi:cx="342.31921" sodipodi:cy="253.74945" sodipodi:r1="17.55109" sodipodi:r2="4.9821787" sodipodi:sides="5" sodipodi:type="star" class="st4" d="
			M-523,289.1l-15.1,93l-93.1,14.4l-42.5-84.1l66.9-66.4L-523,289.1z"/>
		<g id="g9121-9-9-7-3-6-2-3" transform="matrix(0.617555,-0.42981584,0.3982783,0.65081731,-256.55311,436.52112)">
			<path id="polygon3-4-2-5-2-7-7-9" inkscape:connector-curvature="0" class="st5" d="M-260.8-374v1.5l-26.1,15.1v-1.5
				C-286.9-358.9-260.8-374-260.8-374z"/>
			<path id="polygon5-6-4-2-4-4-7-3" inkscape:connector-curvature="0" class="st5" d="M-313-372.4v-1.5l26.1,15.1v1.5
				C-286.9-357.4-313-372.4-313-372.4z"/>
			<path id="polygon7-3-5-3-2-0-3-9" inkscape:connector-curvature="0" class="st5" d="M-313.3-367.4l0.6-1.1l23.8,13.8l-0.6,1.1
				C-289.5-353.7-313.3-367.4-313.3-367.4z"/>
			<g id="g9-9-2-2-7-1-5-4" transform="matrix(0.95,0,0,0.95,5.526775,2.923325)">
				<path id="path11-6-1-5-8-0-3-1" inkscape:connector-curvature="0" class="st6" d="M-259.4-379.2c0-2.3,0.6-4.1,1.8-5.4
					c1.2-1.3,2.8-1.9,4.7-1.9c1.3,0,2.4,0.3,3.4,0.9c1,0.6,1.8,1.5,2.3,2.5c0.5,1.1,0.8,2.3,0.8,3.7c0,1.4-0.3,2.6-0.8,3.7
					c-0.6,1.1-1.4,1.9-2.4,2.5c-1,0.6-2.1,0.8-3.3,0.8c-1.3,0-2.5-0.3-3.5-0.9c-1-0.6-1.8-1.5-2.3-2.6
					C-259.2-376.9-259.4-378-259.4-379.2z M-257.6-379.2c0,1.7,0.4,3,1.3,3.9c0.9,1,2,1.4,3.4,1.4c1.4,0,2.5-0.5,3.4-1.4
					s1.3-2.3,1.3-4.1c0-1.1-0.2-2.1-0.6-2.9c-0.4-0.8-0.9-1.5-1.7-1.9c-0.7-0.5-1.5-0.7-2.5-0.7c-1.3,0-2.4,0.4-3.3,1.3
					C-257.1-382.7-257.6-381.3-257.6-379.2z"/>
				<path id="path13-1-9-1-7-6-6-3" inkscape:connector-curvature="0" class="st6" d="M-243.9-372.5v-13.8h1.8v5.7l7.1,0v-5.7h1.8
					v13.8h-1.8v-6.5l-7.1,0v6.5H-243.9z"/>
			</g>
			<path id="polygon15-7-6-5-1-4-0-9" inkscape:connector-curvature="0" class="st5" d="M-241.2-362.7l-0.6,1.1l-18.9-10.9v-1.5
				C-260.8-374-241.2-362.7-241.2-362.7z"/>
			<g id="g17-7-7-7-1-8-9-8" transform="matrix(0.95,0,0,0.95,5.526775,2.923325)">
				<path id="path19-2-7-5-9-3-8-5" inkscape:connector-curvature="0" class="st6" d="M-286.9-426.8c0-2.3,0.6-4.1,1.8-5.4
					c1.2-1.3,2.8-1.9,4.7-1.9c1.3,0,2.4,0.3,3.4,0.9c1,0.6,1.8,1.5,2.3,2.5c0.5,1.1,0.8,2.3,0.8,3.7c0,1.4-0.3,2.6-0.8,3.7
					c-0.6,1.1-1.4,1.9-2.4,2.5c-1,0.6-2.1,0.8-3.3,0.8c-1.3,0-2.5-0.3-3.5-0.9c-1-0.6-1.8-1.5-2.3-2.6
					C-286.7-424.4-286.9-425.6-286.9-426.8z M-285-426.8c0,1.7,0.4,3,1.3,3.9c0.9,1,2,1.4,3.4,1.4c1.4,0,2.5-0.5,3.4-1.4
					c0.9-1,1.3-2.3,1.3-4.1c0-1.1-0.2-2.1-0.6-2.9c-0.4-0.8-0.9-1.5-1.7-1.9s-1.5-0.7-2.5-0.7c-1.3,0-2.4,0.4-3.3,1.3
					S-285-428.8-285-426.8z"/>
			</g>
			<path id="rect21-5-7-4-1-9-8-4" inkscape:connector-curvature="0" class="st5" d="M-263.7-394.2h1.3v22.3h-1.3
				C-263.7-371.9-263.7-394.2-263.7-394.2z"/>
			<path id="rect23-6-3-4-5-8-6-6" inkscape:connector-curvature="0" class="st5" d="M-259.2-394.2h1.3l0,22.3h-1.3
				C-259.2-371.9-259.2-394.2-259.2-394.2z"/>
			<path id="polygon25-6-7-4-30-4-0-5" inkscape:connector-curvature="0" class="st5" d="M-339.1-357.4v-1.5L-313-374v1.5
				L-339.1-357.4z"/>
			<g id="g27-8-3-1-8-7-4-2" transform="matrix(0.95,0,0,0.95,5.526775,2.923325)">
				<path id="path29-0-7-2-3-8-3-3" inkscape:connector-curvature="0" class="st6" d="M-410-388.4v-13.8h1.8v5.7l7.1,0v-5.7h1.8
					v13.8h-1.8v-6.5l-7.1,0v6.5H-410C-410-388.4-410-388.4-410-388.4z"/>
				<path id="path31-1-5-9-6-9-5-1" inkscape:connector-curvature="0" class="st6" d="M-396.7-395.1c0-2.3,0.6-4.1,1.8-5.4
					c1.2-1.3,2.8-1.9,4.7-1.9c1.3,0,2.4,0.3,3.4,0.9c1,0.6,1.8,1.5,2.3,2.5c0.5,1.1,0.8,2.3,0.8,3.7c0,1.4-0.3,2.6-0.8,3.7
					c-0.6,1.1-1.4,1.9-2.4,2.5c-1,0.6-2.1,0.8-3.3,0.8c-1.3,0-2.5-0.3-3.5-0.9c-1-0.6-1.8-1.5-2.3-2.6
					C-396.5-392.7-396.7-393.8-396.7-395.1z M-394.9-395c0,1.7,0.4,3,1.3,3.9c0.9,1,2,1.4,3.4,1.4c1.4,0,2.5-0.5,3.4-1.4
					c0.9-1,1.3-2.3,1.3-4.1c0-1.1-0.2-2.1-0.6-2.9c-0.4-0.8-0.9-1.5-1.7-1.9c-0.7-0.5-1.5-0.7-2.5-0.7c-1.3,0-2.4,0.4-3.3,1.3
					C-394.4-398.6-394.9-397.1-394.9-395z"/>
			</g>
			<path id="polygon33-1-9-0-6-1-9-2" inkscape:connector-curvature="0" class="st5" d="M-358.1-368.3l0.6-1.1l18.3,10.6v1.5
				L-358.1-368.3z"/>
			<g id="g35-8-6-5-8-7-9-3" transform="matrix(0.95,0,0,0.95,5.526775,2.923325)">
				<path id="path37-3-3-8-6-0-9-7" inkscape:connector-curvature="0" class="st6" d="M-369.4-347.5c0-2.3,0.6-4.1,1.8-5.4
					c1.2-1.3,2.8-1.9,4.7-1.9c1.3,0,2.4,0.3,3.4,0.9c1,0.6,1.8,1.5,2.3,2.5c0.5,1.1,0.8,2.3,0.8,3.7c0,1.4-0.3,2.6-0.8,3.7
					c-0.6,1.1-1.4,1.9-2.4,2.5c-1,0.6-2.1,0.8-3.3,0.8c-1.3,0-2.5-0.3-3.5-0.9s-1.8-1.5-2.3-2.6
					C-369.1-345.1-369.4-346.2-369.4-347.5z M-367.5-347.4c0,1.7,0.4,3,1.3,3.9c0.9,1,2,1.4,3.4,1.4c1.4,0,2.5-0.5,3.4-1.4
					c0.9-1,1.3-2.3,1.3-4.1c0-1.1-0.2-2.1-0.6-2.9s-0.9-1.5-1.7-1.9s-1.5-0.7-2.5-0.7c-1.3,0-2.4,0.4-3.3,1.3
					S-367.5-349.5-367.5-347.4z"/>
			</g>
			<path id="rect39-3-8-5-0-0-7-2" inkscape:connector-curvature="0" class="st5" d="M-337.5-359.4h1.3l0,23.6h-1.3
				C-337.5-335.8-337.5-359.4-337.5-359.4z"/>
			<path id="rect41-7-1-4-2-5-0-3" inkscape:connector-curvature="0" class="st5" d="M-342-359.4h1.3v23.6h-1.3V-359.4z"/>
		</g>
	</g>
	
		<g id="g9558-6-4-6-4-4-0" transform="matrix(0.0726521,0.2037844,-0.20053652,0.07149417,-428.29159,395.92232)" inkscape:transform-center-x="-1.0828753" inkscape:transform-center-y="1.6430808">
		
			<path id="path9406-9-9-2-5-3-7-8-4-9-9-9-0" inkscape:flatsided="true" inkscape:randomized="0" inkscape:rounded="0" inkscape:transform-center-x="17.000017" inkscape:transform-center-y="-13.000018" sodipodi:arg1="0.91148626" sodipodi:arg2="1.5398048" sodipodi:cx="342.31921" sodipodi:cy="253.74945" sodipodi:r1="17.55109" sodipodi:r2="4.9821787" sodipodi:sides="5" sodipodi:type="star" class="st4" d="
			M-317.3,667.9l-15.1,93l-93.1,14.4l-42.5-84.1l66.9-66.4L-317.3,667.9z"/>
		<g id="g9121-9-9-7-3-1-6" transform="matrix(0.617555,-0.42981584,0.3982783,0.65081731,-256.55311,436.52112)">
			<path id="polygon3-4-2-5-2-4-7" inkscape:connector-curvature="0" class="st5" d="M-290.5,188.5v1.5l-26.1,15.1v-1.5
				C-316.6,203.6-290.5,188.5-290.5,188.5z"/>
			<path id="polygon5-6-4-2-4-2-3" inkscape:connector-curvature="0" class="st5" d="M-342.7,190v-1.5l26.1,15.1v1.5
				C-316.6,205.1-342.7,190-342.7,190z"/>
			<path id="polygon7-3-5-3-2-01-5" inkscape:connector-curvature="0" class="st5" d="M-343,195.1l0.6-1.1l23.8,13.8l-0.6,1.1
				C-319.2,208.8-343,195.1-343,195.1z"/>
			<g id="g9-9-2-2-7-4-2" transform="matrix(0.95,0,0,0.95,5.526775,2.923325)">
				<path id="path11-6-1-5-8-1-3" inkscape:connector-curvature="0" class="st6" d="M-290.7,212.9c0-2.3,0.6-4.1,1.8-5.4
					c1.2-1.3,2.8-1.9,4.7-1.9c1.3,0,2.4,0.3,3.4,0.9c1,0.6,1.8,1.5,2.3,2.5c0.5,1.1,0.8,2.3,0.8,3.7c0,1.4-0.3,2.6-0.8,3.7
					c-0.6,1.1-1.4,1.9-2.4,2.5c-1,0.6-2.1,0.8-3.3,0.8c-1.3,0-2.5-0.3-3.5-0.9c-1-0.6-1.8-1.5-2.3-2.6
					C-290.4,215.2-290.7,214.1-290.7,212.9z M-288.8,212.9c0,1.7,0.4,3,1.3,3.9c0.9,1,2,1.4,3.4,1.4c1.4,0,2.5-0.5,3.4-1.4
					s1.3-2.3,1.3-4.1c0-1.1-0.2-2.1-0.6-2.9c-0.4-0.8-0.9-1.5-1.7-1.9c-0.7-0.5-1.5-0.7-2.5-0.7c-1.3,0-2.4,0.4-3.3,1.3
					S-288.8,210.8-288.8,212.9z"/>
				<path id="path13-1-9-1-7-5-9" inkscape:connector-curvature="0" class="st6" d="M-275.1,219.6l0-13.8h1.8l0,5.7l7.1,0v-5.7h1.8
					l0,13.8h-1.8v-6.5h-7.1l0,6.5H-275.1z"/>
			</g>
			<path id="polygon15-7-6-5-1-44-3" inkscape:connector-curvature="0" class="st5" d="M-270.9,199.8l-0.6,1.1l-18.9-10.9v-1.5
				C-290.5,188.5-270.9,199.8-270.9,199.8z"/>
			<g id="g17-7-7-7-1-6-1" transform="matrix(0.95,0,0,0.95,5.526775,2.923325)">
				<path id="path19-2-7-5-9-7-6" inkscape:connector-curvature="0" class="st6" d="M-318.2,165.3c0-2.3,0.6-4.1,1.8-5.4
					c1.2-1.3,2.8-1.9,4.7-1.9c1.3,0,2.4,0.3,3.4,0.9c1,0.6,1.8,1.5,2.3,2.5c0.5,1.1,0.8,2.3,0.8,3.7c0,1.4-0.3,2.6-0.8,3.7
					c-0.6,1.1-1.4,1.9-2.4,2.5c-1,0.6-2.1,0.8-3.3,0.8c-1.3,0-2.5-0.3-3.5-0.9s-1.8-1.5-2.3-2.6
					C-317.9,167.7-318.2,166.5-318.2,165.3z M-316.3,165.3c0,1.7,0.4,3,1.3,3.9c0.9,1,2,1.4,3.4,1.4c1.4,0,2.5-0.5,3.4-1.4
					c0.9-1,1.3-2.3,1.3-4.1c0-1.1-0.2-2.1-0.6-2.9c-0.4-0.8-0.9-1.5-1.7-1.9s-1.5-0.7-2.5-0.7c-1.3,0-2.4,0.4-3.3,1.3
					C-315.8,161.8-316.3,163.3-316.3,165.3z"/>
			</g>
			<path id="rect21-5-7-4-1-95-8" inkscape:connector-curvature="0" class="st5" d="M-293.4,168.3l1.3,0l0,22.3h-1.3
				C-293.4,190.6-293.4,168.3-293.4,168.3z"/>
			<path id="rect23-6-3-4-5-3-9" inkscape:connector-curvature="0" class="st5" d="M-288.9,168.3h1.3l0,22.3h-1.3
				C-288.9,190.6-288.9,168.3-288.9,168.3z"/>
			<path id="polygon25-6-7-4-30-7-3" inkscape:connector-curvature="0" class="st5" d="M-368.8,205.1l0-1.5l26.1-15.1v1.5
				L-368.8,205.1z"/>
			<g id="g27-8-3-1-8-5-2" transform="matrix(0.95,0,0,0.95,5.526775,2.923325)">
				<path id="path29-0-7-2-3-3-2" inkscape:connector-curvature="0" class="st6" d="M-441.2,203.7l0-13.8h1.8v5.7h7.1V190h1.8
					l0,13.8h-1.8l0-6.5h-7.1l0,6.5L-441.2,203.7C-441.2,203.7-441.2,203.7-441.2,203.7z"/>
				<path id="path31-1-5-9-6-2-5" inkscape:connector-curvature="0" class="st6" d="M-428,197c0-2.3,0.6-4.1,1.8-5.4
					c1.2-1.3,2.8-1.9,4.7-1.9c1.3,0,2.4,0.3,3.4,0.9c1,0.6,1.8,1.5,2.3,2.5c0.5,1.1,0.8,2.3,0.8,3.7c0,1.4-0.3,2.6-0.8,3.7
					c-0.6,1.1-1.4,1.9-2.4,2.5c-1,0.6-2.1,0.8-3.3,0.8c-1.3,0-2.5-0.3-3.5-0.9c-1-0.6-1.8-1.5-2.3-2.6
					C-427.7,199.4-428,198.2-428,197z M-426.1,197.1c0,1.7,0.4,3,1.3,3.9c0.9,1,2,1.4,3.4,1.4c1.4,0,2.5-0.5,3.4-1.4
					c0.9-1,1.3-2.3,1.3-4.1c0-1.1-0.2-2.1-0.6-2.9c-0.4-0.8-0.9-1.5-1.7-1.9c-0.7-0.5-1.5-0.7-2.5-0.7c-1.3,0-2.4,0.4-3.3,1.3
					C-425.6,193.5-426.1,195-426.1,197.1z"/>
			</g>
			<path id="polygon33-1-9-0-6-4-0" inkscape:connector-curvature="0" class="st5" d="M-387.8,194.1l0.6-1.1l18.3,10.6v1.5
				L-387.8,194.1z"/>
			<g id="g35-8-6-5-8-5-4" transform="matrix(0.95,0,0,0.95,5.526775,2.923325)">
				<path id="path37-3-3-8-6-6-5" inkscape:connector-curvature="0" class="st6" d="M-400.6,244.6c0-2.3,0.6-4.1,1.8-5.4
					c1.2-1.3,2.8-1.9,4.7-1.9c1.3,0,2.4,0.3,3.4,0.9c1,0.6,1.8,1.5,2.3,2.5c0.5,1.1,0.8,2.3,0.8,3.7c0,1.4-0.3,2.6-0.8,3.7
					c-0.6,1.1-1.4,1.9-2.4,2.5s-2.1,0.8-3.3,0.8c-1.3,0-2.5-0.3-3.5-0.9s-1.8-1.5-2.3-2.6C-400.4,247-400.6,245.8-400.6,244.6z
					 M-398.7,244.7c0,1.7,0.4,3,1.3,3.9c0.9,1,2,1.4,3.4,1.4c1.4,0,2.5-0.5,3.4-1.4c0.9-1,1.3-2.3,1.3-4.1c0-1.1-0.2-2.1-0.6-2.9
					c-0.4-0.8-0.9-1.5-1.7-1.9c-0.7-0.5-1.5-0.7-2.5-0.7c-1.3,0-2.4,0.4-3.3,1.3C-398.3,241.1-398.7,242.6-398.7,244.7z"/>
			</g>
			<path id="rect39-3-8-5-0-5-0" inkscape:connector-curvature="0" class="st5" d="M-367.2,203h1.3l0,23.6h-1.3
				C-367.2,226.6-367.2,203-367.2,203z"/>
			<path id="rect41-7-1-4-2-8-5" inkscape:connector-curvature="0" class="st5" d="M-371.7,203h1.3l0,23.6h-1.3L-371.7,203z"/>
		</g>
	</g>
	
		<g id="g9558-6-4-6-4-8-8" transform="matrix(-0.09493931,0.19440407,-0.19130567,-0.09342619,-427.08997,495.81451)" inkscape:transform-center-x="0.16489894" inkscape:transform-center-y="5.3778093">
		
			<path id="path9406-9-9-2-5-3-7-8-4-9-9-8-5" inkscape:flatsided="true" inkscape:randomized="0" inkscape:rounded="0" inkscape:transform-center-x="17.000017" inkscape:transform-center-y="-13.000018" sodipodi:arg1="0.91148626" sodipodi:arg2="1.5398048" sodipodi:cx="342.31921" sodipodi:cy="253.74945" sodipodi:r1="17.55109" sodipodi:r2="4.9821787" sodipodi:sides="5" sodipodi:type="star" class="st4" d="
			M-67.8,781.5l-15.1,93L-176,889l-42.5-84.1l66.9-66.4L-67.8,781.5z"/>
		<g id="g9121-9-9-7-3-5-4" transform="matrix(0.617555,-0.42981584,0.3982783,0.65081731,-256.55311,436.52112)">
			<path id="polygon3-4-2-5-2-5-4" inkscape:connector-curvature="0" class="st5" d="M-86.1,498v1.5l-26.1,15.1v-1.5
				C-112.2,513.1-86.1,498-86.1,498z"/>
			<path id="polygon5-6-4-2-4-1-5" inkscape:connector-curvature="0" class="st5" d="M-138.3,499.6V498l26.1,15.1v1.5
				C-112.2,514.6-138.3,499.6-138.3,499.6z"/>
			<path id="polygon7-3-5-3-2-3-3" inkscape:connector-curvature="0" class="st5" d="M-138.6,504.6l0.6-1.1l23.8,13.8l-0.6,1.1
				C-114.8,518.3-138.6,504.6-138.6,504.6z"/>
			<g id="g9-9-2-2-7-0-7" transform="matrix(0.95,0,0,0.95,5.526775,2.923325)">
				<path id="path11-6-1-5-8-2-3" inkscape:connector-curvature="0" class="st6" d="M-75.6,538.7c0-2.3,0.6-4.1,1.8-5.4
					c1.2-1.3,2.8-1.9,4.7-1.9c1.3,0,2.4,0.3,3.4,0.9c1,0.6,1.8,1.5,2.3,2.5c0.5,1.1,0.8,2.3,0.8,3.7c0,1.4-0.3,2.6-0.8,3.7
					c-0.6,1.1-1.4,1.9-2.4,2.5c-1,0.6-2.1,0.8-3.3,0.8c-1.3,0-2.5-0.3-3.5-0.9c-1-0.6-1.8-1.5-2.3-2.6
					C-75.3,541-75.6,539.9-75.6,538.7z M-73.7,538.7c0,1.7,0.4,3,1.3,3.9s2,1.4,3.4,1.4c1.4,0,2.5-0.5,3.4-1.4s1.3-2.3,1.3-4.1
					c0-1.1-0.2-2.1-0.6-2.9c-0.4-0.8-0.9-1.5-1.7-1.9c-0.7-0.5-1.5-0.7-2.5-0.7c-1.3,0-2.4,0.4-3.3,1.3
					C-73.2,535.2-73.7,536.6-73.7,538.7z"/>
				<path id="path13-1-9-1-7-3-7" inkscape:connector-curvature="0" class="st6" d="M-60,545.4l0-13.8h1.8l0,5.7h7.1l0-5.7h1.8
					l0,13.8h-1.8l0-6.5h-7.1v6.5L-60,545.4z"/>
			</g>
			<path id="polygon15-7-6-5-1-42-6" inkscape:connector-curvature="0" class="st5" d="M-66.6,509.3l-0.6,1.1l-18.9-10.9V498
				C-86.1,498-66.6,509.3-66.6,509.3z"/>
			<g id="g17-7-7-7-1-1-6" transform="matrix(0.95,0,0,0.95,5.526775,2.923325)">
				<path id="path19-2-7-5-9-76-0" inkscape:connector-curvature="0" class="st6" d="M-103,491.1c0-2.3,0.6-4.1,1.8-5.4
					c1.2-1.3,2.8-1.9,4.7-1.9c1.3,0,2.4,0.3,3.4,0.9c1,0.6,1.8,1.5,2.3,2.5c0.5,1.1,0.8,2.3,0.8,3.7c0,1.4-0.3,2.6-0.8,3.7
					c-0.6,1.1-1.4,1.9-2.4,2.5c-1,0.6-2.1,0.8-3.3,0.8c-1.3,0-2.5-0.3-3.5-0.9c-1-0.6-1.8-1.5-2.3-2.6
					C-102.8,493.5-103,492.3-103,491.1z M-101.2,491.2c0,1.7,0.4,3,1.3,3.9c0.9,1,2,1.4,3.4,1.4c1.4,0,2.5-0.5,3.4-1.4
					c0.9-1,1.3-2.3,1.3-4.1c0-1.1-0.2-2.1-0.6-2.9c-0.4-0.8-0.9-1.5-1.7-1.9c-0.7-0.5-1.5-0.7-2.5-0.7c-1.3,0-2.4,0.4-3.3,1.3
					C-100.7,487.6-101.2,489.1-101.2,491.2z"/>
			</g>
			<path id="rect21-5-7-4-1-6-8" inkscape:connector-curvature="0" class="st5" d="M-89,477.8h1.3l0,22.3H-89
				C-89,500.1-89,477.8-89,477.8z"/>
			<path id="rect23-6-3-4-5-0-5" inkscape:connector-curvature="0" class="st5" d="M-84.5,477.8l1.3,0l0,22.3h-1.3
				C-84.5,500.1-84.5,477.8-84.5,477.8z"/>
			<path id="polygon25-6-7-4-30-3-9" inkscape:connector-curvature="0" class="st5" d="M-164.4,514.6v-1.5l26.1-15.1v1.5
				L-164.4,514.6z"/>
			<g id="g27-8-3-1-8-1-1" transform="matrix(0.95,0,0,0.95,5.526775,2.923325)">
				<path id="path29-0-7-2-3-39-4" inkscape:connector-curvature="0" class="st6" d="M-226.1,529.5l0-13.8h1.8l0,5.7l7.1,0v-5.7
					l1.8,0v13.8h-1.8v-6.5h-7.1v6.5H-226.1C-226.1,529.5-226.1,529.5-226.1,529.5z"/>
				<path id="path31-1-5-9-6-0-8" inkscape:connector-curvature="0" class="st6" d="M-212.8,522.9c0-2.3,0.6-4.1,1.8-5.4
					c1.2-1.3,2.8-1.9,4.7-1.9c1.3,0,2.4,0.3,3.4,0.9c1,0.6,1.8,1.5,2.3,2.5c0.5,1.1,0.8,2.3,0.8,3.7c0,1.4-0.3,2.6-0.8,3.7
					c-0.6,1.1-1.4,1.9-2.4,2.5s-2.1,0.8-3.3,0.8c-1.3,0-2.5-0.3-3.5-0.9c-1-0.6-1.8-1.5-2.3-2.6
					C-212.6,525.2-212.8,524.1-212.8,522.9z M-211,522.9c0,1.7,0.4,3,1.3,3.9c0.9,1,2,1.4,3.4,1.4c1.4,0,2.5-0.5,3.4-1.4
					c0.9-1,1.3-2.3,1.3-4.1c0-1.1-0.2-2.1-0.6-2.9c-0.4-0.8-0.9-1.5-1.7-1.9c-0.7-0.5-1.5-0.7-2.5-0.7c-1.3,0-2.4,0.4-3.3,1.3
					C-210.5,519.3-211,520.8-211,522.9z"/>
			</g>
			<path id="polygon33-1-9-0-6-7-3" inkscape:connector-curvature="0" class="st5" d="M-183.4,503.7l0.6-1.1l18.3,10.6v1.5
				L-183.4,503.7z"/>
			<g id="g35-8-6-5-8-3-2" transform="matrix(0.95,0,0,0.95,5.526775,2.923325)">
				<path id="path37-3-3-8-6-1-5" inkscape:connector-curvature="0" class="st6" d="M-185.5,570.5c0-2.3,0.6-4.1,1.8-5.4
					c1.2-1.3,2.8-1.9,4.7-1.9c1.3,0,2.4,0.3,3.4,0.9c1,0.6,1.8,1.5,2.3,2.5c0.5,1.1,0.8,2.3,0.8,3.7c0,1.4-0.3,2.6-0.8,3.7
					c-0.6,1.1-1.4,1.9-2.4,2.5s-2.1,0.8-3.3,0.8c-1.3,0-2.5-0.3-3.5-0.9c-1-0.6-1.8-1.5-2.3-2.6S-185.5,571.7-185.5,570.5z
					 M-183.6,570.5c0,1.7,0.4,3,1.3,3.9c0.9,1,2,1.4,3.4,1.4c1.4,0,2.5-0.5,3.4-1.4c0.9-1,1.3-2.3,1.3-4.1c0-1.1-0.2-2.1-0.6-2.9
					s-0.9-1.5-1.7-1.9c-0.7-0.5-1.5-0.7-2.5-0.7c-1.3,0-2.4,0.4-3.3,1.3C-183.1,566.9-183.6,568.4-183.6,570.5z"/>
			</g>
			<path id="rect39-3-8-5-0-7-5" inkscape:connector-curvature="0" class="st5" d="M-162.8,512.6h1.3l0,23.6h-1.3
				C-162.8,536.2-162.8,512.6-162.8,512.6z"/>
			<path id="rect41-7-1-4-2-50-9" inkscape:connector-curvature="0" class="st5" d="M-167.3,512.6h1.3l0,23.6h-1.3L-167.3,512.6z"/>
		</g>
	</g>
</g>
</svg>
