<?xml version="1.0" encoding="UTF-8"?>
<svg xmlns="http://www.w3.org/2000/svg" xmlns:xlink="http://www.w3.org/1999/xlink" width="331.275pt" height="62.5322pt" viewBox="0 0 331.275 62.5322" version="1.1">
<defs>
<clipPath id="clip1">
  <path d="M 213 0 L 331.273438 0 L 331.273438 62.53125 L 213 62.53125 Z M 213 0 "/>
</clipPath>
<clipPath id="clip2">
  <path d="M 0 0 L 220 0 L 220 62.53125 L 0 62.53125 Z M 0 0 "/>
</clipPath>
</defs>
<g id="surface1">
<g clip-path="url(#clip1)" clip-rule="nonzero">
<path style=" stroke:none;fill-rule:nonzero;fill:rgb(31.555176%,57.530212%,59.01947%);fill-opacity:1;" d="M 213.011719 0 L 213.011719 21.585938 L 222.6875 31.265625 L 213.011719 40.949219 L 213.011719 62.53125 L 331.273438 62.53125 L 331.273438 0 Z M 213.011719 0 "/>
</g>
<g clip-path="url(#clip2)" clip-rule="nonzero">
<path style=" stroke:none;fill-rule:nonzero;fill:rgb(5.410767%,53.253174%,82.785034%);fill-opacity:1;" d="M 0 0.00390625 L 0 62.523438 L 210.472656 62.523438 L 210.472656 40.320312 L 219.546875 31.242188 L 210.472656 22.167969 L 210.472656 0.00390625 Z M 0 0.00390625 "/>
</g>
<path style=" stroke:none;fill-rule:nonzero;fill:rgb(100%,100%,100%);fill-opacity:1;" d="M 231.734375 29.53125 L 231.734375 31.769531 L 234.28125 31.769531 L 234.28125 32.773438 L 231.734375 32.773438 L 231.734375 35.867188 L 230.203125 35.867188 L 230.203125 28.519531 L 234.828125 28.519531 L 234.828125 29.53125 Z M 231.734375 29.53125 "/>
<path style=" stroke:none;fill-rule:nonzero;fill:rgb(100%,100%,100%);fill-opacity:1;" d="M 238.035156 33.390625 L 237.679688 33.390625 C 237.109375 33.390625 236.261719 33.554688 236.261719 34.28125 C 236.261719 34.691406 236.570312 34.996094 236.976562 34.996094 C 237.40625 34.996094 237.738281 34.777344 238.035156 34.492188 Z M 239.257812 35.992188 C 238.683594 35.992188 238.300781 35.859375 238.089844 35.285156 L 238.035156 35.285156 C 237.550781 35.738281 237.140625 35.992188 236.460938 35.992188 C 235.523438 35.992188 234.847656 35.371094 234.847656 34.425781 C 234.847656 33.886719 235.070312 33.445312 235.488281 33.101562 C 236.085938 32.628906 236.898438 32.539062 237.636719 32.539062 L 238.035156 32.539062 L 238.035156 32.042969 C 238.035156 31.417969 237.660156 31.195312 237.078125 31.195312 C 236.460938 31.195312 235.851562 31.382812 235.324219 31.691406 L 235.324219 30.679688 C 235.960938 30.445312 236.601562 30.292969 237.285156 30.292969 C 237.878906 30.292969 238.542969 30.414062 239.003906 30.820312 C 239.371094 31.140625 239.433594 31.539062 239.433594 32 L 239.433594 34.414062 C 239.433594 34.699219 239.488281 35.050781 239.851562 35.050781 C 239.917969 35.050781 239.972656 35.042969 240.042969 35.03125 L 240.074219 35.859375 C 239.808594 35.933594 239.535156 35.992188 239.257812 35.992188 "/>
<path style=" stroke:none;fill-rule:nonzero;fill:rgb(100%,100%,100%);fill-opacity:1;" d="M 243.269531 35.988281 C 241.503906 35.988281 240.4375 34.898438 240.4375 33.144531 C 240.4375 31.316406 241.574219 30.292969 243.367188 30.292969 C 243.886719 30.292969 244.40625 30.382812 244.902344 30.511719 L 244.902344 31.570312 C 244.4375 31.417969 243.953125 31.273438 243.457031 31.273438 C 242.421875 31.273438 242 32.222656 242 33.125 C 242 34.117188 242.496094 35.019531 243.585938 35.019531 C 244.050781 35.019531 244.511719 34.910156 244.945312 34.734375 L 244.945312 35.746094 C 244.40625 35.914062 243.832031 35.988281 243.269531 35.988281 "/>
<path style=" stroke:none;fill-rule:nonzero;fill:rgb(100%,100%,100%);fill-opacity:1;" d="M 249.210938 35.867188 L 249.210938 34.84375 C 248.792969 35.515625 248.175781 35.988281 247.359375 35.988281 C 246.316406 35.988281 245.785156 35.261719 245.785156 34.269531 L 245.785156 30.425781 L 247.25 30.425781 L 247.25 33.90625 C 247.25 34.359375 247.292969 34.832031 247.867188 34.832031 C 248.484375 34.832031 248.902344 34.316406 249.210938 33.851562 L 249.210938 30.425781 L 250.679688 30.425781 L 250.679688 35.867188 Z M 249.210938 35.867188 "/>
<path style=" stroke:none;fill-rule:nonzero;fill:rgb(100%,100%,100%);fill-opacity:1;" d="M 252.035156 28.03125 L 253.515625 28.03125 L 253.515625 35.867188 L 252.035156 35.867188 Z M 252.035156 28.03125 "/>
<path style=" stroke:none;fill-rule:nonzero;fill:rgb(100%,100%,100%);fill-opacity:1;" d="M 256.886719 35.988281 C 255.621094 35.988281 254.980469 35.515625 254.980469 34.207031 L 254.980469 31.339844 L 254.363281 31.339844 L 254.363281 30.425781 L 254.980469 30.425781 L 254.980469 29.5 L 256.449219 29.335938 L 256.449219 30.425781 L 257.613281 30.425781 L 257.613281 31.339844 L 256.449219 31.339844 L 256.449219 34.015625 C 256.449219 34.625 256.589844 35.007812 257.273438 35.007812 C 257.425781 35.007812 257.570312 34.988281 257.710938 34.941406 L 257.710938 35.835938 C 257.449219 35.925781 257.171875 35.988281 256.886719 35.988281 "/>
<path style=" stroke:none;fill-rule:nonzero;fill:rgb(100%,100%,100%);fill-opacity:1;" d="M 260.394531 37.832031 L 258.894531 37.832031 L 260.128906 35.867188 L 258.113281 30.425781 L 259.6875 30.425781 L 261.042969 34.0625 L 262.640625 30.425781 L 263.753906 30.425781 Z M 260.394531 37.832031 "/>
<path style=" stroke:none;fill-rule:nonzero;fill:rgb(100%,100%,100%);fill-opacity:1;" d="M 269.925781 31.21875 C 268.921875 31.21875 268.679688 32.355469 268.679688 33.148438 C 268.679688 33.941406 268.921875 35.074219 269.925781 35.074219 C 270.925781 35.074219 271.179688 33.941406 271.179688 33.148438 C 271.179688 32.34375 270.925781 31.21875 269.925781 31.21875 M 269.925781 35.988281 C 268.171875 35.988281 267.113281 34.886719 267.113281 33.148438 C 267.113281 31.40625 268.171875 30.292969 269.925781 30.292969 C 271.675781 30.292969 272.746094 31.40625 272.746094 33.148438 C 272.746094 34.886719 271.675781 35.988281 269.925781 35.988281 "/>
<path style=" stroke:none;fill-rule:nonzero;fill:rgb(100%,100%,100%);fill-opacity:1;" d="M 276.085938 28.828125 C 275.398438 28.828125 275.3125 29.398438 275.3125 29.949219 C 275.3125 30.105469 275.324219 30.269531 275.324219 30.425781 L 276.699219 30.425781 L 276.699219 31.339844 L 275.324219 31.339844 L 275.324219 35.867188 L 273.847656 35.867188 L 273.847656 31.339844 L 273.097656 31.339844 L 273.097656 30.425781 L 273.847656 30.425781 L 273.847656 30.027344 C 273.847656 28.640625 274.441406 27.910156 275.863281 27.910156 C 276.316406 27.910156 276.765625 27.976562 277.195312 28.097656 L 277.195312 29.09375 C 276.84375 28.9375 276.46875 28.828125 276.085938 28.828125 "/>
<path style=" stroke:none;fill-rule:nonzero;fill:rgb(100%,100%,100%);fill-opacity:1;" d="M 234.136719 48.339844 C 233.539062 48.953125 232.683594 49.097656 231.855469 49.097656 C 231.160156 49.097656 230.476562 48.988281 229.792969 48.84375 L 229.792969 47.589844 C 230.433594 47.863281 231.105469 48.085938 231.8125 48.085938 C 232.4375 48.085938 233.089844 47.832031 233.089844 47.105469 C 233.089844 46.960938 233.066406 46.839844 233.011719 46.707031 C 232.59375 45.703125 229.78125 45.460938 229.78125 43.390625 C 229.78125 42.015625 230.960938 41.386719 232.207031 41.386719 C 232.878906 41.386719 233.539062 41.484375 234.191406 41.640625 L 234.191406 42.816406 C 233.617188 42.597656 233.03125 42.386719 232.417969 42.386719 C 231.898438 42.386719 231.292969 42.609375 231.292969 43.214844 C 231.292969 44.523438 234.699219 44.59375 234.699219 46.914062 C 234.699219 47.445312 234.5 47.953125 234.136719 48.339844 "/>
<path style=" stroke:none;fill-rule:nonzero;fill:rgb(100%,100%,100%);fill-opacity:1;" d="M 238.117188 49.03125 C 236.355469 49.03125 235.285156 47.941406 235.285156 46.1875 C 235.285156 44.359375 236.421875 43.335938 238.21875 43.335938 C 238.734375 43.335938 239.253906 43.421875 239.75 43.554688 L 239.75 44.613281 C 239.285156 44.460938 238.800781 44.316406 238.304688 44.316406 C 237.269531 44.316406 236.851562 45.261719 236.851562 46.167969 C 236.851562 47.160156 237.347656 48.0625 238.4375 48.0625 C 238.898438 48.0625 239.363281 47.953125 239.792969 47.777344 L 239.792969 48.789062 C 239.253906 48.953125 238.679688 49.03125 238.117188 49.03125 "/>
<path style=" stroke:none;fill-rule:nonzero;fill:rgb(100%,100%,100%);fill-opacity:1;" d="M 240.765625 43.46875 L 242.242188 43.46875 L 242.242188 48.914062 L 240.765625 48.914062 Z M 240.765625 41.316406 L 242.242188 41.316406 L 242.242188 42.542969 L 240.765625 42.542969 Z M 240.765625 41.316406 "/>
<path style=" stroke:none;fill-rule:nonzero;fill:rgb(100%,100%,100%);fill-opacity:1;" d="M 245.824219 44.261719 C 245.0625 44.261719 244.816406 45.019531 244.761719 45.652344 L 246.714844 45.652344 C 246.703125 45.042969 246.59375 44.261719 245.824219 44.261719 M 246.175781 49.03125 C 244.386719 49.03125 243.230469 47.953125 243.230469 46.144531 C 243.230469 44.546875 244.203125 43.335938 245.855469 43.335938 C 246.890625 43.335938 247.683594 43.832031 247.980469 44.84375 C 248.136719 45.371094 248.144531 45.925781 248.160156 46.476562 L 244.773438 46.476562 C 244.875 47.535156 245.433594 48.039062 246.492188 48.039062 C 247.066406 48.039062 247.628906 47.898438 248.160156 47.699219 L 248.160156 48.726562 C 247.519531 48.910156 246.847656 49.03125 246.175781 49.03125 "/>
<path style=" stroke:none;fill-rule:nonzero;fill:rgb(100%,100%,100%);fill-opacity:1;" d="M 252.726562 48.910156 L 252.726562 45.429688 C 252.726562 44.976562 252.683594 44.492188 252.109375 44.492188 C 251.496094 44.492188 251.074219 45.011719 250.777344 45.484375 L 250.777344 48.910156 L 249.300781 48.910156 L 249.300781 43.46875 L 250.777344 43.46875 L 250.777344 44.492188 C 251.195312 43.808594 251.800781 43.335938 252.628906 43.335938 C 253.675781 43.335938 254.207031 44.074219 254.207031 45.066406 L 254.207031 48.910156 Z M 252.726562 48.910156 "/>
<path style=" stroke:none;fill-rule:nonzero;fill:rgb(100%,100%,100%);fill-opacity:1;" d="M 257.980469 49.03125 C 256.21875 49.03125 255.152344 47.941406 255.152344 46.1875 C 255.152344 44.359375 256.285156 43.335938 258.082031 43.335938 C 258.597656 43.335938 259.117188 43.421875 259.613281 43.554688 L 259.613281 44.613281 C 259.152344 44.460938 258.664062 44.316406 258.171875 44.316406 C 257.132812 44.316406 256.714844 45.261719 256.714844 46.167969 C 256.714844 47.160156 257.210938 48.0625 258.300781 48.0625 C 258.765625 48.0625 259.226562 47.953125 259.65625 47.777344 L 259.65625 48.789062 C 259.117188 48.953125 258.542969 49.03125 257.980469 49.03125 "/>
<path style=" stroke:none;fill-rule:nonzero;fill:rgb(100%,100%,100%);fill-opacity:1;" d="M 262.71875 44.261719 C 261.960938 44.261719 261.71875 45.019531 261.660156 45.652344 L 263.613281 45.652344 C 263.601562 45.042969 263.492188 44.261719 262.71875 44.261719 M 263.074219 49.03125 C 261.285156 49.03125 260.132812 47.953125 260.132812 46.144531 C 260.132812 44.546875 261.101562 43.335938 262.753906 43.335938 C 263.789062 43.335938 264.582031 43.832031 264.878906 44.84375 C 265.035156 45.371094 265.046875 45.925781 265.054688 46.476562 L 261.671875 46.476562 C 261.773438 47.535156 262.332031 48.039062 263.390625 48.039062 C 263.964844 48.039062 264.527344 47.898438 265.054688 47.699219 L 265.054688 48.726562 C 264.414062 48.910156 263.742188 49.03125 263.074219 49.03125 "/>
<path style=" stroke:none;fill-rule:nonzero;fill:rgb(100%,100%,100%);fill-opacity:1;" d="M 268.046875 49.03125 C 267.363281 49.03125 266.691406 48.933594 266.042969 48.734375 L 266.042969 47.667969 C 266.636719 47.90625 267.253906 48.117188 267.902344 48.117188 C 268.277344 48.117188 268.816406 47.964844 268.816406 47.5 C 268.816406 46.542969 266.0625 46.761719 266.0625 44.976562 C 266.0625 43.71875 267.253906 43.335938 268.3125 43.335938 C 268.851562 43.335938 269.382812 43.421875 269.898438 43.53125 L 269.898438 44.558594 C 269.425781 44.414062 268.941406 44.261719 268.433594 44.261719 C 268.066406 44.261719 267.519531 44.359375 267.519531 44.824219 C 267.519531 45.726562 270.328125 45.539062 270.328125 47.300781 C 270.328125 48.523438 269.105469 49.03125 268.046875 49.03125 "/>
<path style=" stroke:none;fill-rule:nonzero;fill:rgb(100%,100%,100%);fill-opacity:1;" d="M 29.011719 49.0625 L 16.632812 15.605469 L 24.066406 15.605469 L 33.664062 41.492188 L 42.972656 15.605469 L 47.96875 15.605469 L 35.972656 49.0625 Z M 29.011719 49.0625 "/>
<path style=" stroke:none;fill-rule:nonzero;fill:rgb(100%,100%,100%);fill-opacity:1;" d="M 52.019531 15.605469 L 58.980469 15.605469 L 58.980469 36.125 C 58.980469 39.832031 59.609375 42.292969 60.871094 43.5 C 62.125 44.707031 63.757812 45.308594 65.761719 45.308594 C 67.738281 45.308594 69.308594 44.714844 70.476562 43.523438 C 71.648438 42.332031 72.230469 40.03125 72.230469 36.621094 L 72.230469 15.605469 L 78.289062 15.605469 L 78.289062 36.15625 C 78.289062 40.027344 77.800781 42.804688 76.828125 44.484375 C 75.859375 46.167969 74.453125 47.488281 72.613281 48.453125 C 70.777344 49.417969 68.445312 49.898438 65.628906 49.898438 C 62.855469 49.898438 60.472656 49.453125 58.484375 48.554688 C 56.496094 47.660156 54.917969 46.324219 53.757812 44.550781 C 52.597656 42.78125 52.019531 39.957031 52.019531 36.085938 Z M 52.019531 15.605469 "/>
<path style=" stroke:none;fill-rule:nonzero;fill:rgb(100%,100%,100%);fill-opacity:1;" d="M 87.828125 40.875 L 87.828125 41.761719 L 88.089844 41.53125 C 88.023438 41.277344 87.972656 41.035156 87.929688 40.785156 Z M 87.828125 40.875 "/>
<path style=" stroke:none;fill-rule:nonzero;fill:rgb(100%,100%,100%);fill-opacity:1;" d="M 92.292969 31.019531 C 92.292969 30.875 92.402344 30.726562 92.550781 30.726562 C 92.699219 30.726562 92.8125 30.875 92.8125 31.019531 C 92.8125 31.167969 92.699219 31.277344 92.550781 31.277344 C 92.402344 31.277344 92.292969 31.167969 92.292969 31.019531 "/>
<path style=" stroke:none;fill-rule:nonzero;fill:rgb(100%,100%,100%);fill-opacity:1;" d="M 108.796875 39.144531 C 108.390625 38.039062 107.320312 37.296875 105.847656 37.410156 C 105.03125 35.859375 103.738281 36.59375 103.367188 37.042969 C 103.777344 37.410156 104.105469 37.554688 104.585938 37.628906 L 104.585938 37.960938 C 103.664062 37.925781 103.367188 37.554688 102.742188 36.890625 C 102.484375 39.105469 105.066406 39.882812 105.882812 38.074219 C 107.101562 38.039062 107.839844 38.585938 108.101562 39.363281 C 108.351562 40.136719 108.101562 40.992188 107.691406 41.398438 C 106.949219 42.28125 105.769531 42.28125 104.699219 41.726562 C 104.035156 41.398438 103.332031 40.695312 102.703125 40.027344 C 101.78125 38.996094 101.265625 38.550781 100.5625 38.183594 C 100.175781 38 99.789062 37.910156 99.414062 37.847656 C 99.195312 37.8125 98.972656 37.785156 98.757812 37.777344 C 98.539062 37.777344 98.347656 37.800781 98.167969 37.835938 C 96.589844 38.007812 94.984375 38.789062 93.066406 38.957031 L 92.03125 38.957031 C 91.394531 39.515625 90.828125 40.015625 90.332031 40.453125 L 89.117188 41.507812 C 89.121094 41.519531 89.125 41.523438 89.128906 41.53125 C 88.609375 42.003906 88.304688 42.28125 88.304688 42.28125 C 88.449219 43.425781 88.488281 43.980469 88.488281 45.015625 C 88.488281 45.863281 88.449219 46.273438 88.449219 46.640625 C 88.414062 47.007812 88.339844 47.304688 88.230469 47.597656 C 88.15625 47.859375 87.9375 48.082031 87.566406 48.117188 C 87.234375 48.191406 86.457031 47.597656 86.199219 47.964844 C 85.980469 48.261719 86.238281 48.964844 86.457031 49.152344 L 88.636719 49.152344 C 88.898438 48.597656 89.007812 48.261719 89.152344 47.933594 C 89.339844 47.671875 89.488281 47.261719 89.632812 47.007812 C 89.785156 46.753906 89.929688 46.378906 90.003906 46.125 C 90.039062 45.863281 90.152344 45.601562 90.191406 45.421875 C 90.335938 45.015625 90.554688 44.644531 90.703125 44.425781 C 90.738281 44.359375 90.785156 44.300781 90.820312 44.242188 C 90.921875 44.382812 91.015625 44.527344 91.074219 44.644531 C 91.59375 45.457031 92.03125 46.085938 92.773438 46.378906 C 93.066406 46.527344 93.253906 46.640625 93.359375 46.753906 C 93.472656 46.859375 93.472656 47.195312 93.441406 47.410156 C 93.441406 47.710938 93.324219 47.964844 93.03125 48.082031 C 92.550781 48.261719 91.777344 47.566406 91.480469 47.933594 C 91.222656 48.226562 91.519531 48.78125 91.777344 49.152344 L 93.765625 49.152344 C 94.25 48.375 94.433594 47.304688 94.433594 46.417969 C 94.433594 45.492188 94.433594 45.269531 93.878906 45.050781 C 93.695312 44.9375 93.507812 44.496094 93.359375 44.015625 C 93.359375 43.960938 93.363281 43.871094 93.363281 43.761719 C 94.316406 43.449219 95.367188 42.894531 96.519531 42.046875 C 96.523438 42.199219 96.527344 42.351562 96.542969 42.503906 C 96.722656 43.761719 96.871094 44.90625 97.832031 45.828125 C 98.089844 46.085938 98.3125 46.34375 98.347656 46.492188 C 98.347656 46.605469 98.199219 47.007812 98.089844 47.195312 C 97.867188 47.671875 97.390625 48.082031 97.019531 48.117188 C 96.542969 48.191406 95.984375 47.566406 95.613281 47.933594 C 95.28125 48.261719 95.726562 48.964844 95.949219 49.152344 L 97.976562 49.152344 C 98.644531 47.933594 99.566406 46.898438 99.898438 46.234375 C 100.082031 45.75 100.082031 45.566406 99.710938 45.421875 C 99.050781 45.050781 99.125 44.238281 99.304688 43.320312 C 99.355469 43.164062 99.433594 43.007812 99.515625 42.863281 C 100.015625 44.257812 100.671875 45.566406 102.1875 45.976562 C 102.445312 46.007812 102.816406 46.199219 102.855469 46.273438 C 102.855469 46.34375 102.855469 46.640625 102.816406 46.859375 C 102.742188 47.304688 102.484375 47.820312 102.148438 48.082031 C 101.78125 48.375 100.859375 47.410156 100.5625 47.964844 C 100.34375 48.414062 100.714844 49.003906 100.894531 49.152344 L 102.855469 49.152344 C 103.40625 47.933594 103.890625 46.859375 104.035156 46.085938 C 104.183594 45.164062 104.183594 44.832031 103.480469 44.683594 C 103.109375 44.644531 102.816406 44.496094 102.703125 43.980469 C 102.445312 43.058594 102.484375 41.507812 101.78125 40.433594 C 102.558594 41.359375 103.40625 42.023438 104.144531 42.390625 C 105.847656 43.320312 107.613281 42.980469 108.460938 41.761719 C 109.019531 40.839844 109.019531 39.804688 108.796875 39.144531 "/>
<path style=" stroke:none;fill-rule:nonzero;fill:rgb(100%,100%,100%);fill-opacity:1;" d="M 125.746094 15.734375 C 124.234375 15.550781 120.792969 15.917969 117.84375 16.582031 C 119.6875 15.660156 120.207031 15.515625 120.871094 15.105469 C 121.054688 14.996094 121.167969 14.734375 121.167969 14.332031 C 121.167969 13.886719 120.761719 13.816406 120.285156 13.886719 C 119.796875 13.925781 118.765625 14.292969 117.507812 14.734375 C 115 15.769531 111.386719 17.46875 107.101562 20.351562 C 103.332031 22.933594 100.820312 25.148438 98.089844 27.917969 C 97.378906 28.648438 96.554688 29.554688 95.703125 30.558594 C 95.511719 30.230469 95.394531 30.152344 95.058594 30.246094 C 96.019531 28.0625 96.132812 27.953125 96.652344 26.703125 C 96.871094 26.109375 96.761719 25.664062 96.542969 25.410156 C 96.242188 24.890625 95.835938 25.257812 95.578125 25.445312 C 95.175781 25.925781 95.058594 26.039062 94.175781 27.144531 C 95.28125 23.453125 95.875 23.15625 96.90625 21.050781 C 97.019531 20.792969 97.019531 20.351562 96.871094 20.019531 C 96.761719 19.757812 96.613281 19.609375 96.394531 19.722656 C 95.984375 19.910156 95.875 20.128906 95.097656 21.050781 C 96.207031 18.945312 97.722656 16.472656 97.867188 16.070312 C 98.050781 15.625 98.3125 15.550781 97.835938 14.886719 C 97.460938 14.332031 97.132812 14.734375 96.871094 14.996094 C 96.652344 15.105469 96.207031 15.625 95.433594 16.550781 C 97.054688 13.515625 98.570312 12.117188 98.863281 11.597656 C 99.230469 11.007812 99.269531 10.863281 98.976562 10.199219 C 98.714844 9.605469 98.199219 9.867188 97.941406 10.199219 C 96.800781 11.300781 96.871094 11.046875 94.949219 13.261719 C 95.949219 10.640625 97.683594 8.640625 98.3125 7.613281 C 98.570312 7.207031 98.605469 7.058594 98.347656 6.058594 C 98.199219 5.621094 97.835938 5.46875 97.460938 5.507812 C 96.90625 5.621094 96.394531 5.917969 95.355469 6.796875 C 93.253906 8.683594 90.445312 11.417969 88.15625 16.324219 C 85.941406 20.9375 85.464844 25.300781 85.464844 28.289062 C 85.464844 32.933594 86.679688 36.957031 87.800781 39.484375 C 87.800781 39.390625 87.789062 39.316406 87.785156 39.214844 C 87.71875 37.960938 87.933594 36.523438 88.15625 35.824219 C 88.625 33.972656 89.238281 32.980469 89.75 32.175781 L 88.855469 30.949219 L 90.039062 31.316406 L 89.339844 29.765625 C 89.339844 29.765625 90.230469 29.867188 90.917969 30.785156 C 91.351562 30.394531 92.222656 30.050781 93.066406 30.726562 C 93.625 30.6875 93.957031 30.804688 94.25 30.949219 C 94.878906 31.316406 94.800781 31.980469 94.765625 32.128906 C 94.433594 31.835938 93.507812 31.242188 92.511719 32.015625 L 94.359375 32.648438 L 92.03125 32.828125 L 92.03125 35.234375 L 89.265625 37.699219 L 89.265625 38.648438 L 91.15625 36.976562 L 91.15625 37.847656 L 87.816406 40.851562 L 87.816406 41.761719 L 92.03125 37.972656 L 92.03125 37.984375 L 93.09375 37.03125 C 93.09375 37.03125 93.101562 37.042969 93.105469 37.042969 C 93.730469 36.523438 93.992188 36.265625 94.359375 36.082031 C 94.800781 35.78125 94.878906 36.113281 94.949219 36.59375 C 95.058594 37 95.539062 37.410156 96.542969 36.484375 C 99.492188 33.824219 102.597656 32.386719 105.882812 30.804688 C 104.105469 32.015625 100.820312 33.824219 99.710938 35.050781 C 99.230469 35.597656 99.710938 36.964844 100.488281 36.375 C 101.890625 35.449219 103.738281 35.304688 104.664062 35.339844 C 105.105469 35.339844 105.589844 35.050781 105.847656 34.675781 C 106.097656 34.339844 106.097656 33.972656 105.511719 33.933594 C 108.539062 33.015625 109.316406 32.757812 111.828125 32.535156 C 112.488281 32.496094 112.894531 32.128906 113.007812 31.574219 C 113.117188 31.058594 112.859375 30.910156 112.230469 30.835938 C 111.492188 30.726562 110.199219 30.949219 108.90625 31.167969 C 111.828125 29.914062 115.367188 29.25 118.175781 28.4375 C 119.0625 28.179688 119.175781 27.917969 119.210938 27.402344 C 119.316406 26.847656 118.875 26.847656 117.878906 26.847656 C 115.851562 26.957031 112.824219 27.144531 108.207031 28.472656 C 112.5625 26.292969 115 25.257812 118.949219 24.265625 C 120.023438 23.96875 120.207031 23.710938 120.285156 23.15625 C 120.464844 22.53125 119.949219 22.53125 119.582031 22.601562 C 119.027344 22.636719 117.695312 22.601562 115 23.414062 C 117.625 22.273438 120.503906 20.9375 122.570312 20.28125 C 123.015625 20.128906 123.269531 19.835938 123.269531 19.347656 C 123.269531 18.984375 123.160156 18.945312 122.71875 18.945312 C 121.832031 18.945312 120.390625 19.242188 118.65625 19.757812 C 122.199219 18.246094 123.269531 17.726562 125.632812 17.320312 C 126.410156 17.136719 126.558594 16.882812 126.59375 16.398438 C 126.707031 15.734375 126.265625 15.769531 125.746094 15.734375 M 90.59375 27.769531 C 90.554688 27.472656 90.40625 27.296875 90.152344 27.144531 C 90.667969 25.886719 91.183594 24.890625 92.183594 23.558594 C 91.257812 25.410156 90.816406 26.957031 90.59375 27.769531 M 87.382812 26.742188 C 88.082031 19.203125 91.519531 13.671875 93.847656 11.121094 C 90.484375 16.070312 88.5625 22.933594 87.382812 26.742188 M 99.933594 28.878906 C 104.332031 24.707031 110.347656 20.28125 117.953125 18.394531 C 111.53125 20.679688 102.707031 26.703125 99.933594 28.878906 "/>
<path style=" stroke:none;fill-rule:nonzero;fill:rgb(100%,100%,100%);fill-opacity:1;" d="M 126.5625 28.789062 L 128.050781 28.789062 L 128.050781 33.183594 C 128.050781 33.976562 128.1875 34.507812 128.457031 34.761719 C 128.722656 35.019531 129.074219 35.148438 129.503906 35.148438 C 129.925781 35.148438 130.261719 35.019531 130.511719 34.765625 C 130.761719 34.511719 130.890625 34.019531 130.890625 33.289062 L 130.890625 28.789062 L 132.1875 28.789062 L 132.1875 33.1875 C 132.1875 34.019531 132.082031 34.613281 131.871094 34.972656 C 131.667969 35.332031 131.367188 35.613281 130.96875 35.820312 C 130.578125 36.027344 130.082031 36.132812 129.476562 36.132812 C 128.882812 36.132812 128.375 36.035156 127.945312 35.84375 C 127.519531 35.652344 127.183594 35.363281 126.933594 34.988281 C 126.683594 34.605469 126.5625 34 126.5625 33.175781 Z M 126.5625 28.789062 "/>
<path style=" stroke:none;fill-rule:nonzero;fill:rgb(100%,100%,100%);fill-opacity:1;" d="M 133.960938 35.953125 L 133.960938 28.792969 L 135.273438 28.792969 L 138.585938 33.683594 L 138.585938 28.792969 L 139.78125 28.792969 L 139.78125 35.953125 L 138.445312 35.953125 L 135.15625 31.058594 L 135.15625 35.953125 Z M 133.960938 35.953125 "/>
<path style=" stroke:none;fill-rule:nonzero;fill:rgb(100%,100%,100%);fill-opacity:1;" d="M 141.734375 28.792969 L 143.226562 28.792969 L 143.226562 35.953125 L 141.734375 35.953125 Z M 141.734375 28.792969 "/>
<path style=" stroke:none;fill-rule:nonzero;fill:rgb(100%,100%,100%);fill-opacity:1;" d="M 146.839844 35.953125 L 144.191406 28.792969 L 145.78125 28.792969 L 147.835938 34.332031 L 149.828125 28.792969 L 150.898438 28.792969 L 148.328125 35.953125 Z M 146.839844 35.953125 "/>
<path style=" stroke:none;fill-rule:nonzero;fill:rgb(100%,100%,100%);fill-opacity:1;" d="M 151.691406 35.953125 L 151.691406 28.792969 L 156.277344 28.792969 L 156.277344 29.777344 L 153.183594 29.777344 L 153.183594 31.769531 L 155.742188 31.769531 L 155.742188 32.757812 L 153.183594 32.757812 L 153.183594 34.933594 L 156.507812 34.933594 L 156.507812 35.953125 Z M 151.691406 35.953125 "/>
<path style=" stroke:none;fill-rule:nonzero;fill:rgb(100%,100%,100%);fill-opacity:1;" d="M 159.148438 32.039062 L 159.488281 32.039062 C 160.105469 32.039062 160.53125 31.90625 160.765625 31.640625 C 161 31.371094 161.117188 31.070312 161.117188 30.730469 C 161.117188 30.433594 161.023438 30.203125 160.832031 30.03125 C 160.640625 29.859375 160.253906 29.769531 159.667969 29.769531 L 159.148438 29.769531 Z M 157.742188 35.953125 L 157.742188 28.789062 L 160.425781 28.789062 C 160.972656 28.789062 161.390625 28.859375 161.675781 28.992188 C 161.964844 29.132812 162.195312 29.339844 162.359375 29.621094 C 162.527344 29.898438 162.605469 30.214844 162.605469 30.5625 C 162.605469 30.984375 162.488281 31.378906 162.246094 31.753906 C 162.003906 32.125 161.660156 32.410156 161.21875 32.605469 L 163.566406 35.953125 L 161.75 35.953125 L 159.964844 33.023438 L 159.148438 33.023438 L 159.148438 35.953125 Z M 157.742188 35.953125 "/>
<path style=" stroke:none;fill-rule:nonzero;fill:rgb(100%,100%,100%);fill-opacity:1;" d="M 164.015625 35.890625 L 164.015625 34.660156 C 164.570312 34.894531 164.988281 35.035156 165.265625 35.078125 C 165.539062 35.128906 165.796875 35.148438 166.027344 35.148438 C 166.445312 35.148438 166.757812 35.054688 166.964844 34.867188 C 167.171875 34.679688 167.277344 34.457031 167.277344 34.195312 C 167.277344 33.992188 167.214844 33.816406 167.101562 33.652344 C 166.988281 33.496094 166.703125 33.285156 166.253906 33.035156 L 165.769531 32.769531 C 165.078125 32.386719 164.613281 32.03125 164.367188 31.703125 C 164.121094 31.375 163.996094 31.003906 163.996094 30.570312 C 163.996094 30.03125 164.207031 29.570312 164.617188 29.1875 C 165.027344 28.800781 165.617188 28.609375 166.394531 28.609375 C 166.96875 28.609375 167.621094 28.691406 168.339844 28.855469 L 168.339844 30.003906 C 167.605469 29.730469 167.015625 29.59375 166.578125 29.59375 C 166.21875 29.59375 165.945312 29.667969 165.757812 29.828125 C 165.566406 29.984375 165.472656 30.171875 165.472656 30.390625 C 165.472656 30.558594 165.53125 30.714844 165.648438 30.863281 C 165.757812 31.007812 166.039062 31.207031 166.492188 31.457031 L 167.007812 31.742188 C 167.796875 32.1875 168.300781 32.570312 168.519531 32.894531 C 168.738281 33.226562 168.839844 33.59375 168.839844 34 C 168.839844 34.589844 168.617188 35.089844 168.171875 35.507812 C 167.722656 35.921875 167.011719 36.128906 166.035156 36.128906 C 165.453125 36.128906 164.78125 36.050781 164.015625 35.890625 "/>
<path style=" stroke:none;fill-rule:nonzero;fill:rgb(100%,100%,100%);fill-opacity:1;" d="M 170.074219 28.792969 L 171.566406 28.792969 L 171.566406 35.953125 L 170.074219 35.953125 Z M 170.074219 28.792969 "/>
<path style=" stroke:none;fill-rule:nonzero;fill:rgb(100%,100%,100%);fill-opacity:1;" d="M 174.664062 35.953125 L 174.664062 29.777344 L 172.097656 29.777344 L 172.097656 28.792969 L 178.71875 28.792969 L 178.71875 29.777344 L 176.15625 29.777344 L 176.15625 35.953125 Z M 174.664062 35.953125 "/>
<path style=" stroke:none;fill-rule:nonzero;fill:rgb(100%,100%,100%);fill-opacity:1;" d="M 128.039062 46.171875 L 130.261719 46.171875 L 129.148438 43.316406 Z M 125.839844 49.035156 L 128.625 41.871094 L 130.117188 41.871094 L 132.90625 49.035156 L 131.375 49.035156 L 130.632812 47.121094 L 127.667969 47.121094 L 126.921875 49.035156 Z M 125.839844 49.035156 "/>
<path style=" stroke:none;fill-rule:nonzero;fill:rgb(100%,100%,100%);fill-opacity:1;" d="M 133.835938 49.035156 L 133.835938 41.871094 L 135.808594 41.871094 L 137.535156 46.910156 L 139.316406 41.871094 L 141.046875 41.871094 L 141.046875 49.035156 L 139.671875 49.035156 L 139.671875 43.628906 L 137.921875 48.554688 L 136.722656 48.554688 L 135.007812 43.558594 L 135.007812 49.035156 Z M 133.835938 49.035156 "/>
<path style=" stroke:none;fill-rule:nonzero;fill:rgb(100%,100%,100%);fill-opacity:1;" d="M 142.519531 48.972656 L 142.519531 47.742188 C 143.078125 47.980469 143.496094 48.117188 143.773438 48.160156 C 144.046875 48.207031 144.304688 48.230469 144.535156 48.230469 C 144.957031 48.230469 145.265625 48.140625 145.472656 47.949219 C 145.675781 47.765625 145.78125 47.539062 145.78125 47.277344 C 145.78125 47.078125 145.722656 46.898438 145.609375 46.734375 C 145.492188 46.578125 145.207031 46.371094 144.761719 46.121094 L 144.28125 45.855469 C 143.585938 45.46875 143.121094 45.113281 142.875 44.789062 C 142.628906 44.460938 142.507812 44.082031 142.507812 43.65625 C 142.507812 43.117188 142.710938 42.65625 143.125 42.273438 C 143.535156 41.886719 144.125 41.691406 144.902344 41.691406 C 145.472656 41.691406 146.128906 41.777344 146.851562 41.941406 L 146.851562 43.089844 C 146.109375 42.8125 145.523438 42.675781 145.085938 42.675781 C 144.722656 42.675781 144.453125 42.757812 144.265625 42.910156 C 144.074219 43.066406 143.980469 43.257812 143.980469 43.472656 C 143.980469 43.644531 144.039062 43.800781 144.152344 43.945312 C 144.265625 44.089844 144.546875 44.289062 144.996094 44.542969 L 145.511719 44.828125 C 146.304688 45.269531 146.808594 45.65625 147.027344 45.980469 C 147.242188 46.304688 147.351562 46.675781 147.351562 47.085938 C 147.351562 47.671875 147.125 48.175781 146.675781 48.59375 C 146.230469 49.007812 145.515625 49.214844 144.539062 49.214844 C 143.960938 49.214844 143.289062 49.132812 142.519531 48.972656 "/>
<path style=" stroke:none;fill-rule:nonzero;fill:rgb(100%,100%,100%);fill-opacity:1;" d="M 149.855469 49.035156 L 149.855469 42.863281 L 147.289062 42.863281 L 147.289062 41.871094 L 153.910156 41.871094 L 153.910156 42.863281 L 151.347656 42.863281 L 151.347656 49.035156 Z M 149.855469 49.035156 "/>
<path style=" stroke:none;fill-rule:nonzero;fill:rgb(100%,100%,100%);fill-opacity:1;" d="M 154.503906 49.035156 L 154.503906 41.871094 L 159.09375 41.871094 L 159.09375 42.863281 L 155.992188 42.863281 L 155.992188 44.851562 L 158.554688 44.851562 L 158.554688 45.84375 L 155.992188 45.84375 L 155.992188 48.019531 L 159.316406 48.019531 L 159.316406 49.035156 Z M 154.503906 49.035156 "/>
<path style=" stroke:none;fill-rule:nonzero;fill:rgb(100%,100%,100%);fill-opacity:1;" d="M 161.859375 45.125 L 162.203125 45.125 C 162.820312 45.125 163.242188 44.988281 163.476562 44.722656 C 163.710938 44.453125 163.828125 44.152344 163.828125 43.8125 C 163.828125 43.519531 163.734375 43.285156 163.542969 43.113281 C 163.351562 42.941406 162.964844 42.855469 162.378906 42.855469 L 161.859375 42.855469 Z M 160.457031 49.035156 L 160.457031 41.871094 L 163.136719 41.871094 C 163.683594 41.871094 164.101562 41.941406 164.390625 42.078125 C 164.679688 42.214844 164.90625 42.425781 165.070312 42.703125 C 165.238281 42.980469 165.320312 43.296875 165.320312 43.648438 C 165.320312 44.066406 165.199219 44.464844 164.957031 44.835938 C 164.714844 45.210938 164.371094 45.492188 163.929688 45.691406 L 166.277344 49.035156 L 164.460938 49.035156 L 162.679688 46.105469 L 161.859375 46.105469 L 161.859375 49.035156 Z M 160.457031 49.035156 "/>
<path style=" stroke:none;fill-rule:nonzero;fill:rgb(100%,100%,100%);fill-opacity:1;" d="M 168.53125 48.019531 L 169.640625 48.019531 C 170.226562 48.019531 170.667969 47.925781 170.976562 47.746094 C 171.285156 47.570312 171.527344 47.261719 171.707031 46.832031 C 171.886719 46.402344 171.976562 45.921875 171.976562 45.390625 C 171.976562 44.882812 171.890625 44.433594 171.714844 44.042969 C 171.542969 43.65625 171.296875 43.359375 170.992188 43.160156 C 170.679688 42.957031 170.164062 42.855469 169.429688 42.855469 L 168.53125 42.855469 Z M 167.042969 49.039062 L 167.042969 41.871094 L 170.125 41.871094 C 170.953125 41.871094 171.59375 42.003906 172.050781 42.273438 C 172.511719 42.535156 172.878906 42.925781 173.148438 43.441406 C 173.421875 43.953125 173.558594 44.574219 173.558594 45.304688 C 173.558594 46.019531 173.429688 46.65625 173.167969 47.214844 C 172.914062 47.78125 172.53125 48.21875 172.035156 48.546875 C 171.539062 48.875 170.855469 49.039062 169.992188 49.039062 Z M 167.042969 49.039062 "/>
<path style=" stroke:none;fill-rule:nonzero;fill:rgb(100%,100%,100%);fill-opacity:1;" d="M 175.9375 46.171875 L 178.160156 46.171875 L 177.050781 43.316406 Z M 173.734375 49.035156 L 176.523438 41.871094 L 178.019531 41.871094 L 180.804688 49.035156 L 179.277344 49.035156 L 178.53125 47.121094 L 175.566406 47.121094 L 174.820312 49.035156 Z M 173.734375 49.035156 "/>
<path style=" stroke:none;fill-rule:nonzero;fill:rgb(100%,100%,100%);fill-opacity:1;" d="M 181.535156 49.035156 L 181.535156 41.871094 L 183.503906 41.871094 L 185.234375 46.910156 L 187.015625 41.871094 L 188.746094 41.871094 L 188.746094 49.035156 L 187.371094 49.035156 L 187.371094 43.628906 L 185.625 48.554688 L 184.425781 48.554688 L 182.707031 43.558594 L 182.707031 49.035156 Z M 181.535156 49.035156 "/>
<path style=" stroke:none;fill-rule:nonzero;fill:rgb(100%,100%,100%);fill-opacity:1;" d="M 181.386719 35.953125 L 181.386719 32.949219 L 178.980469 28.792969 L 180.628906 28.792969 L 182.375 31.8125 L 184.199219 28.792969 L 185.378906 28.792969 L 182.875 32.941406 L 182.875 35.953125 Z M 181.386719 35.953125 "/>
</g>
</svg>
